<?xml version="1.0" encoding="UTF-8" standalone="no"?>
<!-- Created with Inkscape (http://www.inkscape.org/) -->

<svg
   width="1000"
   height="1000"
   viewBox="0 0 264.58333 264.58333"
   version="1.1"
   id="svg16268"
   inkscape:version="1.2.1 (9c6d41e410, 2022-07-14)"
   sodipodi:docname="sticker.svg"
   inkscape:export-filename="icon.png"
   inkscape:export-xdpi="268.79999"
   inkscape:export-ydpi="268.79999"
   xmlns:inkscape="http://www.inkscape.org/namespaces/inkscape"
   xmlns:sodipodi="http://sodipodi.sourceforge.net/DTD/sodipodi-0.dtd"
   xmlns:xlink="http://www.w3.org/1999/xlink"
   xmlns="http://www.w3.org/2000/svg"
   xmlns:svg="http://www.w3.org/2000/svg">
  <sodipodi:namedview
     id="namedview16270"
     pagecolor="#ffffff"
     bordercolor="#000000"
     borderopacity="0.25"
     inkscape:showpageshadow="2"
     inkscape:pageopacity="0.0"
     inkscape:pagecheckerboard="true"
     inkscape:deskcolor="#d1d1d1"
     inkscape:document-units="mm"
     showgrid="true"
     inkscape:zoom="1"
     inkscape:cx="751.99997"
     inkscape:cy="659.49997"
     inkscape:window-width="1440"
     inkscape:window-height="890"
     inkscape:window-x="-6"
     inkscape:window-y="-6"
     inkscape:window-maximized="1"
     inkscape:current-layer="text3523">
    <inkscape:grid
       type="xygrid"
       id="grid1096" />
  </sodipodi:namedview>
  <defs
     id="defs16265">
    <color-profile
       name="Web-Coated-SWOP-2006-Grade-5-Paper"
       xlink:href="file:///C:/WINDOWS/system32/spool/drivers/color/WebCoatedSWOP2006Grade5.icc"
       id="color-profile18610" />
    <color-profile
       name="Coated-GRACoL-2006--ISO-12647-2:2004-"
       xlink:href="file:///C:/WINDOWS/system32/spool/drivers/color/CoatedGRACoL2006.icc"
       id="color-profile18612" />
    <color-profile
       name="Coated-FOGRA39--ISO-12647-2:2004-"
       xlink:href="file:///C:/WINDOWS/system32/spool/drivers/color/CoatedFOGRA39.icc"
       id="color-profile18614" />
  </defs>
  <g
     inkscape:label="Layer 1"
     inkscape:groupmode="layer"
     id="layer1">
    <circle
       style="display:inline;fill:#712626;fill-opacity:1;fill-rule:evenodd;stroke:none;stroke-width:4.22837;stroke-linecap:round;stroke-linejoin:round;stroke-dasharray:none;paint-order:fill markers stroke;stop-color:#000000"
       id="path15923"
       cx="132.29167"
       cy="132.29167"
       r="132.29167" />
    <path
       id="circle13749-7"
       style="display:inline;fill:#000000;fill-rule:evenodd;stroke:none;stroke-width:17.1605;stroke-linecap:round;stroke-linejoin:round;paint-order:fill markers stroke;stop-color:#000000"
       d="m 139.93922,0.2341525 c 5.51228,20.2376985 13.83325,37.7407795 16.11656,37.7237835 2.07313,-0.01557 9.12657,-14.453311 14.53401,-32.2493084 -3.33913,-1.0105667 -6.71688,-1.8886563 -10.12538,-2.6322126 -0.59531,2.3261626 -1.21063,4.5814001 -1.84094,6.6532543 V 2.6726046 c -1.72156,-0.3465208 -3.44987,-0.6588125 -5.18375,-0.93675 v 8.0906001 c -0.79,-2.5936979 -1.55125,-5.469623 -2.27687,-8.4458751 -3.72313,-0.54164584 -7.46766,-0.92422918 -11.22347,-1.14656251 z M 124.517,0.37956917 c -3.77734,0.22062501 -7.5435,0.60312501 -11.28806,1.14656253 -0.70875,2.8849688 -1.44438,5.6795147 -2.21219,8.2036876 l 3e-5,-7.8645168 c -1.73344,0.2403125 -3.46147,0.5148125 -5.18381,0.8235834 v 7.1378667 c -0.63188,-2.074875 -1.24438,-4.3369625 -1.84094,-6.6694917 -3.39619,0.7123542 -6.763283,1.5581875 -10.093064,2.5353667 5.40925,17.8211874 12.475344,32.2809104 14.550124,32.2654834 2.27657,-0.01707 10.55566,-17.422292 16.06816,-37.57846266 z M 179.7785,8.8414901 C 161.49306,31.426173 154.75706,85.544322 158.12285,87.454291 c 3.36425,1.908846 46.80152,-30.935538 57.23165,-58.039107 -3.91446,-3.170065 -8.00675,-6.114057 -12.25702,-8.817296 0.20416,1.456125 0.0479,3.284908 -0.66209,5.668202 -1.655,5.570708 -6.39354,13.473315 -12.24023,20.913196 -4.99306,6.352 -10.69677,12.382963 -15.69671,17.069355 l 11.77242,-20.363747 c 0.71104,-1.244041 0.27813,-2.828725 -0.96896,-3.536739 -0.59416,-0.334854 -1.29521,-0.423146 -1.95416,-0.242313 -0.6598,0.164584 -1.22813,0.582354 -1.58271,1.162542 l -11.86925,20.573665 c 1.55562,-6.717732 3.95412,-14.76533 6.99244,-22.350048 3.51868,-8.783915 7.98639,-16.839094 11.98145,-21.058732 1.70282,-1.797104 3.19548,-2.855366 4.55413,-3.407343 -4.42783,-2.318257 -8.98413,-4.382667 -13.64588,-6.1850025 z m -95.020034,0.096875 c -4.6995,1.7877919 -9.29325,3.8420609 -13.758875,6.1527559 1.344062,0.5595 2.824687,1.601688 4.505468,3.375244 3.997126,4.218406 8.463844,12.274223 11.982501,21.058134 3.011562,7.518106 5.389812,15.488966 6.944031,22.172425 L 82.642903,41.268574 c -0.342812,-0.570375 -0.8925,-0.986563 -1.53375,-1.163375 -0.678437,-0.196875 -1.406562,-0.110209 -2.01875,0.242187 -1.222187,0.730125 -1.625937,2.309688 -0.904375,3.536552 l 11.8855,20.58978 C 85.021622,59.763686 79.225403,53.648299 74.164872,47.210574 68.317059,39.771344 63.578747,31.884663 61.924028,26.3139 c -0.68719,-2.312412 -0.841252,-4.10336 -0.662187,-5.539056 -4.213065,2.654115 -8.272878,5.543971 -12.160097,8.655794 10.439563,27.119909 53.880196,59.98183 57.215476,58.022938 3.33122,-1.956687 -3.35316,-55.879634 -21.558754,-78.5158921 z M 72.646841,26.540725 c -0.453125,-0.0017 -0.898125,0.115 -1.291875,0.339105 -1.239688,0.713541 -1.665625,2.297218 -0.952813,3.536587 0.713438,1.23975 2.297188,1.6655 3.536594,0.952813 1.239687,-0.713542 1.665625,-2.297219 0.952812,-3.536588 -0.46375,-0.800667 -1.319375,-1.293333 -2.244687,-1.291937 z m 119.146469,-10e-6 c -0.92542,-0.0012 -1.78125,0.491187 -2.245,1.291917 -0.71625,1.235521 -0.29688,2.817721 0.93646,3.536483 1.23958,0.713479 2.82312,0.286875 3.53648,-0.952833 0.71625,-1.235542 0.29687,-2.817565 -0.93646,-3.536484 -0.39334,-0.224062 -0.83938,-0.340333 -1.29188,-0.339208 z m -59.57322,2.163969 c -44.85803,-9e-6 -5.41653,98.467796 0,98.427466 5.4165,-0.0402 44.85803,-98.427456 0,-98.427466 z m -55.681374,4.570129 c -0.452813,-0.0017 -0.898125,0.115 -1.291875,0.339104 -1.239688,0.713521 -1.665625,2.297469 -0.952813,3.536588 0.713438,1.23975 2.2975,1.665646 3.536594,0.952812 1.239688,-0.713541 1.665625,-2.297219 0.952813,-3.536587 -0.46375,-0.800646 -1.319376,-1.293334 -2.244688,-1.291938 z m 111.362714,10e-6 c -0.9252,-0.0012 -1.78125,0.491188 -2.245,1.291917 -0.71354,1.239625 -0.2875,2.823219 0.95271,3.536746 1.23979,0.713479 2.82313,0.286875 3.53648,-0.952833 0.71354,-1.239667 0.2875,-2.823219 -0.95271,-3.536746 -0.39354,-0.224063 -0.83937,-0.340334 -1.29187,-0.339209 z m 34.81701,2.551532 c -12.71575,13.587219 -21.72082,26.924469 -20.67057,28.712704 1.15542,1.967125 20.43938,0.419438 40.69522,-4.90925 -2.06979,-3.155698 -4.27327,-6.221437 -6.60492,-9.188725 -2.87719,0.843188 -5.691,1.606563 -8.28437,2.212375 l 6.86327,-3.95646 c -1.11407,-1.368505 -2.25563,-2.714555 -3.4235,-4.037336 l -6.21734,3.585044 c 1.50344,-1.609844 3.18963,-3.310231 4.94163,-5.022263 -2.33531,-2.560002 -4.77023,-5.027408 -7.29931,-7.396175 z m -180.883664,0.06458 c -2.535,2.379094 -4.975469,4.857181 -7.315563,7.428438 1.651563,1.616083 3.236844,3.222314 4.667063,4.747727 l -5.878219,-3.39127 c -1.210625,1.295042 -2.395,2.614019 -3.552657,3.956521 l 7.057063,4.069521 c -2.625625,-0.607994 -5.488188,-1.374842 -8.413594,-2.228486 -2.34125,2.9456 -4.555531,5.989754 -6.637219,9.124111 20.259594,5.334187 39.537003,6.877102 40.662847,4.893106 C 63.444184,62.692322 54.485963,49.43469 41.834713,35.890919 Z m 90.353034,8.365125 c 2.61344,2.02e-4 3.9946,0.771959 5.103,1.921771 1.10844,1.149896 2.05313,2.987813 2.72907,5.813579 1.3525,5.651827 1.19781,14.856913 -0.14688,24.223338 -1.15156,8.020188 -3.09,16.218927 -5.08691,22.786086 l 3e-5,-23.706575 c -0.0375,-1.406688 -1.19281,-2.525344 -2.6,-2.519094 -1.38187,0.02854 -2.49812,1.137396 -2.53531,2.519312 v 23.981084 c -2.02465,-6.611558 -3.99878,-14.93005 -5.16603,-23.060623 -1.34469,-9.366444 -1.49937,-18.571507 -0.14687,-24.223326 0.67625,-2.825752 1.62093,-4.663639 2.72906,-5.81366 1.10844,-1.149833 2.50594,-1.921646 5.11922,-1.921709 z m 0.0312,12.935267 c -1.43187,0.0032 -2.58937,1.168063 -2.58406,2.599875 0.003,1.425708 1.15844,2.580531 2.58375,2.583719 1.42562,-0.0032 2.58031,-1.158083 2.58375,-2.583875 0.005,-1.431938 -1.15188,-2.596656 -2.58375,-2.599938 z m 0,7.767602 c -1.43187,0.0032 -2.58937,1.168063 -2.58406,2.599907 0.003,1.425729 1.15844,2.580533 2.58375,2.58372 1.42562,-0.0032 2.58062,-1.158375 2.58375,-2.583877 0.005,-1.431937 -1.15188,-2.596656 -2.58375,-2.599937 z m -73.299784,5.264544 c -6.499125,0.01613 -12.218,3.00275 -16.423438,10.286834 -22.429034,38.848203 82.560442,53.916663 85.233822,49.205653 2.17062,-3.82854 -40.647569,-59.562487 -68.810384,-59.492487 z m 146.583404,-6e-6 c -28.17812,-0.06125 -71.02299,55.697553 -68.79421,59.492493 2.74344,4.67056 107.64674,-10.35746 85.21764,-49.205649 -4.20442,-7.284075 -9.91967,-10.272842 -16.42243,-10.28678 z m 44.95853,2.745281 c -14.76104,14.888334 -25.76698,30.829952 -24.61091,32.798392 1.04979,1.78746 17.07456,0.67687 35.18843,-3.5366 -0.79271,-3.394285 -1.71937,-6.755829 -2.7775,-10.076887 -2.31781,0.6515 -4.58758,1.251916 -6.70177,1.744104 l 6.12134,-3.52049 c -0.55396,-1.658583 -1.14084,-3.30626 -1.76021,-4.941567 l -7.10563,4.11798 c 1.87125,-2.006938 4.00344,-4.146669 6.24946,-6.29815 -1.38708,-3.49283 -2.92281,-6.924838 -4.6024,-10.286861 z m -236.37125,0.04833 c -1.701062,3.360607 -3.257625,6.79294 -4.6660624,10.286809 2.1578124,2.06525 4.2119374,4.120881 6.0234684,6.055892 L 8.6487101,85.435618 c -0.6196875,1.629729 -1.2059375,3.272119 -1.76,4.92546 l 6.2173439,3.585178 c -2.159375,-0.498417 -4.4852189,-1.110105 -6.8632189,-1.7765 -1.0303125,3.311508 -1.93,6.662281 -2.696875,10.044664 18.0835339,4.19956 34.0537839,5.30454 35.0753469,3.50433 C 39.744432,103.73803 28.7924,87.873001 14.091179,73.017253 Z m 188.87735,11.562578 c 0.45312,0.03437 0.87208,0.11375 1.25979,0.21 1.55,0.384937 2.90844,1.192687 4.21492,3.45575 1.30646,2.263096 1.34605,3.858979 0.90438,5.393727 -0.44167,1.534833 -1.55729,3.265696 -3.66588,5.26449 -4.21838,3.997087 -12.27429,8.463797 -21.05813,11.982457 -7.48775,2.99944 -15.42419,5.37294 -22.09172,6.92788 l 20.33137,-11.724 c 1.24562,-0.708 1.68062,-2.2921 0.96896,-3.53654 -0.7025,-1.25142 -2.28844,-1.69325 -3.53667,-0.98496 l -20.60586,11.90172 c 4.70894,-5.04802 10.81269,-10.8488 17.24701,-15.906641 7.43918,-5.8478 15.34195,-10.586092 20.91281,-12.240844 1.39292,-0.413687 2.59312,-0.645875 3.64946,-0.726687 0.52875,-0.04125 1.01625,-0.05062 1.46979,-0.01609 z m -140.463001,0.04833 c 1.14625,0.05042 2.486563,0.29375 4.053375,0.759 5.570719,1.654875 13.457751,6.392496 20.896376,12.241346 6.341187,4.984648 12.369781,10.683368 17.05322,15.680568 L 84.160747,101.56893 c -1.248125,-0.70815 -2.834375,-0.26657 -3.536594,0.98489 -0.710937,1.24402 -0.278125,2.82872 0.969063,3.53675 l 20.557534,11.83715 c -6.724128,-1.55213 -14.791909,-3.93584 -22.382472,-6.97632 -8.783937,-3.51869 -16.823562,-7.98537 -21.04194,-11.982576 -2.109062,-1.998625 -3.240312,-3.729862 -3.682,-5.264435 -0.441875,-1.534938 -0.4025,-3.130596 0.904375,-5.393767 1.306563,-2.263312 2.665,-3.087031 4.21475,-3.472064 0.388125,-0.09729 0.805313,-0.162292 1.259688,-0.19375 0.341562,-0.02292 0.7,-0.03271 1.082187,-0.01611 z m 132.517751,8.817292 c -0.455,0.0043 -0.9,0.125625 -1.29208,0.355354 -1.2398,0.713521 -1.66542,2.297219 -0.95292,3.536588 0.71354,1.23975 2.2975,1.665645 3.5366,0.952812 1.23959,-0.713521 1.66563,-2.297219 0.95271,-3.536558 -0.45958,-0.807 -1.31583,-1.306167 -2.24469,-1.308125 z m -125.606032,0.01615 c -0.925312,-0.0012 -1.78125,0.491187 -2.245,1.291916 -0.713437,1.239646 -0.2875,2.823219 0.952813,3.536746 1.239687,0.713479 2.823125,0.286875 3.536468,-0.952875 0.713438,-1.239625 0.2875,-2.823218 -0.952812,-3.536746 -0.393438,-0.224062 -0.839375,-0.340354 -1.291875,-0.339208 z m 6.734094,3.875727 c -0.925313,-0.0012 -1.78125,0.491187 -2.245,1.291896 -0.71625,1.2355 -0.296875,2.817529 0.936562,3.536479 1.239063,0.72721 2.833438,0.30687 3.552719,-0.93663 0.713438,-1.239618 0.2875,-2.823212 -0.952812,-3.536739 -0.392188,-0.229687 -0.836875,-0.353333 -1.292188,-0.355187 z m 112.137878,0 c -0.455,0.0043 -0.9,0.125625 -1.29188,0.355333 -1.23958,0.713542 -1.66562,2.297469 -0.95292,3.536592 0.71917,1.23389 2.30094,1.65325 3.53661,0.93658 1.23958,-0.71354 1.66562,-2.297216 0.95292,-3.536584 -0.46375,-0.800646 -1.31938,-1.293334 -2.24469,-1.291938 z M 8.8900226,111.12852 c -2.5171875,0.05 -4.91875,0.24563 -7.2024063,0.5975 -0.77625004,4.93646 -1.27250004,9.91288 -1.48562505,14.90542 1.15281255,-0.85062 2.76843755,-1.58079 5.07075005,-2.13165 2.8259376,-0.67609 6.5436567,-0.97409 10.7228747,-0.93663 4.17922,0.0375 8.817191,0.40963 13.500472,1.08198 7.976344,1.14513 16.039813,3.06925 22.592313,5.0546 l -23.464376,1e-5 c -1.438437,0.0121 -2.59125,1.194 -2.5675,2.63228 0.01197,1.413 1.154688,2.55565 2.567813,2.56768 l 23.738875,1e-5 c -6.598375,2.01521 -14.777781,3.97401 -22.866844,5.13533 -9.36644,1.34473 -18.57144,1.49756 -24.2233152,0.14541 -2.2978125,-0.55079 -3.9180313,-1.28316 -5.07075005,-2.13165 0.21562501,4.96007 0.71312501,9.90414 1.48562505,14.80852 C 30.412025,157.29816 80.442716,136.1623 80.413778,132.29971 80.387153,128.74518 38.020432,110.54863 8.8903351,111.12852 Z m 243.8643374,0 c -28.98681,0.54339 -68.77174,17.72764 -68.74582,21.17118 0.0292,3.86837 50.19826,25.06449 78.8873,20.54139 0.77937,-4.9631 1.27541,-9.96662 1.48562,-14.98615 -1.15916,0.89983 -2.81969,1.66733 -5.23223,2.24468 -5.65183,1.35238 -14.857,1.19936 -24.22335,-0.14521 -8.00252,-1.14893 -16.08084,-3.06575 -22.64071,-5.05461 h 23.54506 c 1.41313,-0.0119 2.55563,-1.15469 2.5675,-2.56775 0.0229,-1.43813 -1.12937,-2.62009 -2.56781,-2.63213 l -23.69044,1e-5 c 6.58459,-2.00831 14.72321,-3.96165 22.78609,-5.11921 4.68314,-0.67225 9.33741,-1.0445 13.51664,-1.08196 4.17925,-0.0375 7.88081,0.26032 10.70669,0.93663 2.41594,0.5779 4.073,1.35596 5.23221,2.26087 -0.2125,-5.00331 -0.70813,-9.99061 -1.48563,-14.93771 -2.32968,-0.36679 -4.78958,-0.57856 -7.36387,-0.62981 -0.91063,-0.0181 -1.8425,-0.0173 -2.77781,-1.2e-4 z M 13.088741,129.71589 c -1.431875,-0.006 -2.596562,1.15187 -2.6,2.58384 -0.0055,1.43832 1.161563,2.6055 2.6,2.59997 1.431875,-0.003 2.589375,-1.16806 2.584063,-2.5999 -0.0033,-1.42561 -1.158438,-2.58057 -2.58375,-2.58382 z m 7.767595,-1e-5 c -1.431875,-0.006 -2.596563,1.15188 -2.6,2.58385 -0.0055,1.43831 1.161562,2.6055 2.6,2.59997 1.431875,-0.003 2.589377,-1.16807 2.583752,-2.60007 -0.0033,-1.42556 -1.158438,-2.58056 -2.583752,-2.58381 z m 222.725464,0 c -1.42563,0.003 -2.58063,1.15837 -2.58375,2.58387 -0.005,1.43194 1.15187,2.59666 2.58375,2.59994 1.43187,-0.003 2.58937,-1.16806 2.58375,-2.60006 -0.003,-1.42573 -1.15813,-2.58038 -2.58375,-2.58375 z m 7.7676,-2e-5 c -1.42563,0.003 -2.58063,1.15838 -2.58375,2.58391 -0.005,1.43194 1.15187,2.59666 2.58375,2.59994 1.43833,0.006 2.60562,-1.16163 2.6,-2.60003 -0.003,-1.43192 -1.16813,-2.58938 -2.6,-2.58394 z m -109.29568,4.34408 c -3.08281,-0.0372 -5.01113,0.25093 -5.34528,0.83975 -2.67313,4.71116 62.78868,88.05388 85.21769,49.20564 19.62542,-33.99215 -58.29313,-49.78569 -79.87241,-50.04539 z m -19.6855,0.0161 c -21.61272,0.27907 -99.497757,16.0371 -79.872382,50.02926 22.429034,38.84824 87.976972,-44.53495 85.233822,-49.20567 -0.34282,-0.58368 -2.27375,-0.86353 -5.36144,-0.82359 z m 9.85078,3.40753 c -5.41656,0.0406 -44.858034,98.41132 0,98.41132 44.85806,0 5.41656,-98.45162 0,-98.41132 z m 30.00463,9.17259 c 6.73322,1.55456 14.81566,3.95815 22.4308,7.00859 8.78394,3.5187 16.83911,7.9864 21.05873,11.98145 2.10907,1.99863 3.22426,3.72962 3.66584,5.26448 0.44167,1.535 0.41875,3.13058 -0.88812,5.39381 -1.30667,2.26302 -2.66501,3.07081 -4.21482,3.45588 -1.55,0.385 -3.60965,0.29479 -6.39494,-0.53292 -5.56977,-1.65458 -13.47227,-6.39348 -20.91208,-12.24015 -6.37338,-5.01012 -12.42525,-10.74644 -17.11785,-15.76132 l 20.44449,11.80482 c 1.23125,0.71906 2.81188,0.3075 3.53648,-0.92038 0.71104,-1.24402 0.27813,-2.82872 -0.96896,-3.53674 z m -60.18691,0.11312 -20.444504,11.80483 c -1.245625,0.70794 -1.680625,2.29216 -0.969063,3.53655 0.724688,1.22808 2.305313,1.63954 3.536594,0.9205 l 20.590913,-11.88563 c -4.70613,5.04567 -10.811132,10.83145 -17.247007,15.89052 -7.43925,5.8478 -15.342,10.58611 -20.912812,12.24086 -2.785313,0.8275 -4.844907,0.93396 -6.39494,0.54896 -1.55,-0.3848 -2.908438,-1.20896 -4.214875,-3.472 -1.306563,-2.26307 -1.33,-3.84267 -0.888125,-5.37759 0.441562,-1.53479 1.557187,-3.26564 3.665875,-5.26448 4.218408,-3.99699 12.274252,-8.4637 21.058159,-11.98237 7.535562,-3.0186 15.528281,-5.40306 22.220875,-6.96016 z M 33.210182,158.0089 c -6.337688,0.0819 -17.546066,1.53071 -29.6816594,4.34406 0.77125,3.39331 1.6765625,6.75493 2.713125,10.07689 2.2840625,-0.63917 4.5197504,-1.22709 6.6049064,-1.71188 l -5.9750939,3.45585 c 0.5540625,1.65855 1.1409375,3.30623 1.7603125,4.94157 l 6.9763434,-4.03723 c -1.851562,1.985 -3.964531,4.0911 -6.1851246,6.21729 1.4046876,3.47723 2.9562496,6.89306 4.6508746,10.23837 14.719316,-14.86254 25.667285,-30.73682 24.514003,-32.70138 -0.342812,-0.58375 -2.29,-0.86348 -5.377562,-0.82358 z m 197.953048,0.0646 c -3.08281,-0.0371 -5.01106,0.23468 -5.34531,0.82356 -1.12625,1.985 9.86096,17.91634 24.61094,32.7984 1.69271,-3.38221 3.23856,-6.83627 4.63475,-10.35142 -2.1925,-2.09868 -4.28344,-4.17262 -6.12031,-6.13671 l 6.96016,4.02109 c 0.61292,-1.63625 1.19542,-3.283 1.74417,-4.94154 l -6.26467,-3.61744 c 2.16563,0.49979 4.49704,1.10792 6.87938,1.77646 1.05083,-3.29461 1.97187,-6.62931 2.76156,-9.99616 -12.21063,-2.84229 -23.49842,-4.29972 -29.85946,-4.37625 z m -155.013171,4.00501 c -0.459687,1.2e-4 -0.91125,0.12291 -1.307812,0.35537 -1.23375,0.719 -1.653125,2.30091 -0.936563,3.53662 0.713438,1.23979 2.297188,1.66646 3.536625,0.95271 1.239688,-0.71354 1.665626,-2.29732 0.952813,-3.53659 -0.459687,-0.80694 -1.31625,-1.30602 -2.244688,-1.30813 z m 112.137871,1e-5 c -0.92875,0.002 -1.785,0.50119 -2.245,1.30814 -0.71354,1.23963 -0.2875,2.82324 0.95292,3.53676 1.23958,0.71354 2.82313,0.28687 3.53648,-0.95292 0.71333,-1.23962 0.2875,-2.82324 -0.95292,-3.53649 -0.39208,-0.22969 -0.83687,-0.35334 -1.29187,-0.35546 z m -53.46899,3.53661 c 2.00843,6.58452 3.96165,14.72323 5.11922,22.78608 1.34468,9.36644 1.49812,18.57075 0.14687,24.22331 -0.67594,2.82598 -1.62094,4.66342 -2.72937,5.81353 -1.10844,1.14979 -2.48969,1.92187 -5.10304,1.92166 -2.61312,-1e-4 -3.99471,-0.77166 -5.10306,-1.92166 -1.10844,-1.1498 -2.05281,-2.98767 -2.72906,-5.81361 -1.3525,-5.65183 -1.19938,-14.85685 0.14687,-24.22333 1.14907,-8.0025 3.07844,-16.08082 5.07075,-22.64075 l -3e-5,23.51279 c -0.0235,1.43833 1.12938,2.62014 2.56782,2.63227 1.4575,0.015 2.64,-1.175 2.61593,-2.63231 z m -65.402974,0.35529 c -0.454375,0.003 -0.9,0.125 -1.291875,0.35521 -1.239688,0.71354 -1.665625,2.29731 -0.952813,3.53658 0.719063,1.23396 2.30125,1.65292 3.536625,0.93667 1.239688,-0.71355 1.665625,-2.29734 0.952813,-3.53659 -0.46375,-0.80062 -1.319375,-1.29312 -2.244688,-1.29187 z m 125.606034,0 c -0.92521,-10e-4 -1.78125,0.49125 -2.245,1.29187 -0.71355,1.23959 -0.2875,2.82323 0.9527,3.53675 1.23563,0.71625 2.81751,0.2975 3.53648,-0.93666 0.71355,-1.23959 0.2875,-2.82321 -0.9527,-3.53648 -0.39188,-0.22979 -0.83688,-0.35334 -1.2923,-0.35521 z m -88.98034,11.11041 c -4.97044,-0.39854 -46.697697,31.56657 -56.924822,58.0714 3.902094,3.12436 7.978157,6.02505 12.208565,8.68811 -0.171875,-1.43042 -0.01959,-3.21169 0.662188,-5.50677 1.655,-5.57071 6.392468,-13.45775 12.241312,-20.89638 4.995813,-6.35548 10.707688,-12.39808 15.712875,-17.08552 l -11.755437,20.36365 c -0.721875,1.22708 -0.317813,2.80668 0.904375,3.53664 1.234687,0.73 2.827812,0.31729 3.552781,-0.92041 l 11.901719,-20.63828 c -1.551563,6.73357 -3.944313,14.8215 -6.992469,22.43082 -3.518687,8.78391 -7.986406,16.83912 -11.981438,21.05873 -1.674062,1.76646 -3.14875,2.79881 -4.489406,3.35896 4.440375,2.29156 9.007125,4.32947 13.678125,6.10429 18.213382,-22.65209 24.918692,-76.57696 21.558752,-78.48359 -0.0719,-0.0417 -0.16562,-0.0729 -0.275,-0.0812 z m 52.35469,3e-5 c -0.10938,0.009 -0.20313,0.0375 -0.275,0.0812 -3.33544,1.95895 3.3825,55.99631 21.6395,78.58048 4.68994,-1.81 9.27288,-3.88577 13.72652,-6.21734 -1.35771,-0.55229 -2.85187,-1.595 -4.55396,-3.39127 -3.99468,-4.2187 -8.46141,-12.25833 -11.98006,-21.04225 -3.00179,-7.49352 -5.38575,-15.44998 -6.94404,-22.12398 l 11.75642,20.36375 c 0.72458,1.22813 2.30531,1.63959 3.53658,0.92042 1.24562,-0.70792 1.68062,-2.29219 0.96917,-3.53654 l -11.87044,-20.52488 c 5.03731,4.70046 10.81604,10.78415 15.85823,17.19857 5.84777,7.43925 10.58612,15.34202 12.24087,20.91281 0.70563,2.3749 0.8625,4.19848 0.66229,5.6521 4.22084,-2.6851 8.28626,-5.60727 12.17626,-8.7527 -10.20155,-26.52994 -51.99382,-58.56445 -56.94095,-58.11982 z m -26.17735,17.3762 c -1.43188,0.003 -2.58938,1.16813 -2.58375,2.60007 0.003,1.42562 1.15812,2.58039 2.58375,2.58381 1.42562,-0.003 2.58031,-1.15833 2.58375,-2.58388 0.005,-1.43208 -1.15188,-2.59666 -2.58375,-2.6 z m -75.205349,4.79623 c -7.304813,0.0937 -21.047875,1.99813 -35.269188,5.73286 2.08625,3.14564 4.305937,6.20058 6.653344,9.15642 2.83125,-0.8225 5.600937,-1.56813 8.155187,-2.16398 l -6.830969,3.94033 c 1.1575,1.34792 2.341875,2.67242 3.552719,3.97262 l 6.072,-3.52043 c -1.470937,1.57479 -3.1025,3.235 -4.812468,4.90918 2.329687,2.56523 4.759281,5.03792 7.283156,7.41234 12.6855,-13.56425 21.62219,-26.84661 20.57369,-28.63198 -0.342813,-0.58375 -2.290002,-0.84729 -5.377596,-0.8075 z m 150.346099,0.0479 c -3.0825,-0.0375 -5.01109,0.23458 -5.34527,0.82354 -1.02271,1.80271 7.95381,15.10329 20.6544,28.68044 2.54594,-2.37319 4.99706,-4.84581 7.34779,-7.41233 -1.70437,-1.66459 -3.34169,-3.3074 -4.81231,-4.87707 l 6.03969,3.48817 c 1.1677,-1.32292 2.30937,-2.66877 3.42352,-4.03723 l -6.9914,-4.03731 c 2.64375,0.61229 5.51833,1.38646 8.4619,2.24485 2.31343,-2.94723 4.50116,-5.99125 6.55641,-9.12414 -14.25081,-3.7505 -28.02737,-5.66111 -35.3338,-5.74902 z m -75.14075,2.92294 c -1.43188,0.003 -2.58938,1.16812 -2.58375,2.60006 0.003,1.42562 1.15812,2.5804 2.58375,2.58381 1.42562,-0.003 2.58031,-1.15833 2.58375,-2.58387 0.005,-1.43209 -1.15188,-2.59667 -2.58375,-2.59994 z m -55.680347,23.93254 c -0.925312,-0.001 -1.780937,0.49125 -2.244687,1.29188 -0.713438,1.23979 -0.2875,2.82314 0.952812,3.5366 1.235625,0.71625 2.8175,0.29708 3.536532,-0.93667 0.713437,-1.23979 0.2875,-2.82316 -0.952813,-3.53662 -0.392188,-0.22958 -0.8375,-0.35229 -1.291875,-0.35521 z m 111.362717,0 c -0.45271,-0.002 -0.89812,0.11458 -1.29187,0.33917 -1.24938,0.71396 -1.67646,2.30998 -0.95271,3.55277 0.71896,1.23396 2.30125,1.65292 3.5366,0.93667 1.23979,-0.71355 1.66563,-2.29732 0.95292,-3.53659 -0.46375,-0.80062 -1.31958,-1.29333 -2.24469,-1.29187 z m -79.51712,0.50063 c -2.07281,0.0154 -9.126534,14.44012 -14.534003,32.23318 3.350907,0.98438 6.739433,1.83542 10.157693,2.55157 0.575,-2.24813 1.15156,-4.43286 1.76031,-6.44336 v 6.87942 c 1.72219,0.31396 3.4505,0.59417 5.18378,0.83979 l -9e-5,-8.04235 c 0.78718,2.5725 1.55031,5.42618 2.27687,8.38129 3.72316,0.54146 7.46772,0.92396 11.22347,1.14666 -5.5125,-20.16433 -13.791,-37.56306 -16.06816,-37.54612 z m 47.60694,0 c -2.28125,0.017 -10.58822,17.4862 -16.10047,37.6915 3.77716,-0.21563 7.54331,-0.5925 11.28809,-1.13042 0.70469,-2.88875 1.43032,-5.68863 2.19625,-8.21975 l 4e-5,7.88069 c 1.73406,-0.27813 3.46228,-0.59 5.18378,-0.93646 v -7.267 c 0.65062,2.12625 1.29125,4.44814 1.90562,6.84712 3.392,-0.73958 6.75356,-1.61229 10.07691,-2.61631 -5.40929,-17.81829 -12.47538,-32.26479 -14.55016,-32.24933 z m -83.344412,6.234 c -0.925312,-0.001 -1.780937,0.49104 -2.244687,1.29187 -0.713438,1.23979 -0.2875,2.82315 0.952812,3.53661 1.239688,0.71354 2.823125,0.28687 3.536469,-0.95292 0.713437,-1.23979 0.2875,-2.82317 -0.952813,-3.53663 -0.393437,-0.22395 -0.839062,-0.34083 -1.291875,-0.33916 z m 119.146512,0 c -0.45854,-0.005 -0.90959,0.1125 -1.30792,0.33916 -1.23375,0.71896 -1.65312,2.30094 -0.93646,3.53663 0.71354,1.23979 2.29688,1.66625 3.53657,0.95271 1.23375,-0.71896 1.65312,-2.30094 0.93645,-3.53663 -0.46083,-0.79562 -1.30875,-1.28729 -2.22843,-1.29187 z"
       sodipodi:nodetypes="csccccccccccccccccsccsccscccccccsccccccsccccccssccscccssccccccccsssccssccccsscccsccccccccccccccccccsscccccccscssccccccccccsscscssccsccccccccccccccccccscsscscccccssssssccccccssssccsccssccccssccccccccccccccsccssscccccscccsscsccsscccccsssccscccccccccccccccccccccscsscsscssscscsssccccccccccccssssscscsccccccccssssccccccccscccsccccsscccsssssssccccccccccccccccccccsccccccscccscccccsscccccssccccccccsccccccccssssccccccccscccccccccccccscccsccccccccssccccccccsccsscccccccc" />
    <path
       style="display:inline;fill:#ffffff;fill-rule:evenodd;stroke:none;stroke-width:0.153455;stroke-linecap:round;stroke-linejoin:round;stroke-dasharray:none;paint-order:fill markers stroke;stop-color:#000000"
       d="M 99.933514,117.51397 C 85.406978,113.54354 76.069422,109.99513 67.710572,105.2688 56.849093,99.127406 53.057532,94.000776 55.607868,88.904466 c 0.985077,-1.968371 1.785275,-2.842196 3.353095,-3.661477 1.627023,-0.850238 4.748365,-0.814875 7.672755,0.08692 7.24206,2.233293 18.366302,9.583239 28.926317,19.112131 4.101537,3.70103 8.858825,8.43363 8.654025,8.60925 -0.0744,0.0645 -4.762996,-2.55507 -10.416646,-5.82188 -5.65365,-3.2668 -10.601688,-5.93964 -10.995669,-5.93964 -0.394417,0 -1.136125,0.41985 -1.64925,0.93304 -0.784667,0.78431 -0.901729,1.08987 -0.736688,1.91712 0.108542,0.54125 0.434917,1.20563 0.726792,1.47642 0.290938,0.27063 5.052713,3.081 10.580934,6.24494 5.528218,3.16396 10.051277,5.80867 10.051277,5.87716 0,0.18333 -0.63003,0.10687 -1.8414,-0.22438 z M 77.974091,101.58415 c 0.370396,-0.36356 0.598625,-1.00248 0.598625,-1.67548 0,-2.858312 -4.165204,-3.352044 -4.861886,-0.576312 -0.600291,2.390402 2.470625,4.012152 4.263432,2.251782 z m -7.385763,-3.403299 c 1.102,-0.502104 1.594542,-1.858125 1.104563,-3.041031 -0.448125,-1.082125 -1.139834,-1.526771 -2.353563,-1.513062 -2.374875,0.02688 -3.24396,3.030812 -1.275625,4.409468 0.828313,0.580188 1.486063,0.617834 2.524625,0.144584 z"
       id="path16065" />
    <path
       style="display:inline;fill:#ffffff;fill-rule:evenodd;stroke:none;stroke-width:0.153455;stroke-linecap:round;stroke-linejoin:round;stroke-dasharray:none;paint-order:fill markers stroke;stop-color:#000000"
       d="m 59.61308,179.71488 c -2.680725,-0.95555 -4.971273,-4.515 -4.730338,-7.3508 0.19265,-2.27108 1.011619,-3.74064 3.457609,-6.20714 4.967967,-5.00946 15.939327,-10.80996 28.577152,-15.10861 4.844686,-1.64787 14.570857,-4.41778 14.779627,-4.20905 0.13813,0.13833 -0.0248,0.23531 -12.091129,7.19675 -9.04131,5.21608 -9.690698,5.74015 -9.165166,7.39595 0.303437,0.95675 1.395937,1.85368 2.257312,1.85368 0.852479,0 1.498042,-0.34793 13.213954,-7.12065 4.624669,-2.67344 8.458899,-4.81043 8.520409,-4.74888 0.0579,0.0613 -2.13478,2.30853 -4.880819,4.99327 -9.823238,9.60406 -18.715967,16.27754 -27.393557,20.55733 -5.828773,2.87469 -9.768666,3.73777 -12.545054,2.74815 z m 11.462992,-9.36244 c 0.955208,-0.95521 1.104062,-2.08125 0.400187,-3.02692 -1.276791,-1.71508 -3.407006,-1.55862 -4.308573,0.31646 -0.442333,0.91979 -0.08521,2.28625 0.76648,2.93281 0.773083,0.58709 2.451531,0.46834 3.14226,-0.22208 z m 6.898019,-4.01019 c 1.465625,-1.43919 0.295312,-4.10007 -1.804042,-4.10007 -1.877625,0 -3.048094,1.77781 -2.256812,3.428 0.777229,1.62159 2.759687,1.94965 4.060858,0.67202 z"
       id="path16067" />
    <path
       style="display:inline;fill:#ffffff;fill-rule:evenodd;stroke:none;stroke-width:0.153455;stroke-linecap:round;stroke-linejoin:round;stroke-dasharray:none;paint-order:fill markers stroke;stop-color:#000000"
       d="m 8.9982039,140.9026 c -3.2299021,-0.4541 -5.2886897,-0.98914 -6.983596,-1.81483 l -1.67356248,-0.81525 -0.0835417,-5.92103 -0.0833333,-5.92103 1.92485418,-0.89737 c 3.0681876,-1.43038 6.8191397,-1.95831 13.7408874,-1.93396 8.929357,0.0317 17.444476,1.20998 28.601793,3.95871 9.170873,2.25935 9.248675,2.22085 -4.544636,2.2496 -11.660681,0.024 -12.028039,0.0431 -12.813521,0.66112 -1.080146,0.84965 -1.128937,2.63897 -0.09833,3.60715 0.704458,0.66213 0.805313,0.66736 12.9516,0.66736 6.920098,0 12.11453,0.11562 11.949742,0.26593 -0.358937,0.32748 -7.341467,2.18997 -12.10769,3.22969 -4.2946,0.93681 -8.257808,1.62479 -12.73679,2.21099 -3.983716,0.5214 -15.501196,0.81046 -18.0440898,0.45294 z m 5.7815561,-6.91292 c 1.522334,-1.52235 0.444,-4.15724 -1.701937,-4.15724 -1.261729,0 -2.45525,1.19354 -2.45525,2.45528 0,0.59796 0.27875,1.22711 0.753208,1.70196 0.474604,0.47486 1.103979,0.75331 1.701938,0.75331 0.597791,0 1.227104,-0.27843 1.701937,-0.75331 z m 7.715834,0.086 c 1.030563,-0.96818 0.981792,-2.7575 -0.09833,-3.60714 -1.371438,-1.07877 -2.919752,-0.80425 -3.672336,0.65112 -1.296875,2.50785 1.725604,4.87729 3.77073,2.95603 z"
       id="path16069" />
    <path
       style="display:inline;fill:#ffffff;fill-rule:evenodd;stroke:none;stroke-width:0.153455;stroke-linecap:round;stroke-linejoin:round;stroke-dasharray:none;paint-order:fill markers stroke;stop-color:#000000"
       d="m 69.088968,248.36417 c -1.181604,-0.63104 -3.436771,-1.90479 -5.011621,-2.83083 l -2.863221,-1.68375 0.137292,-2.14838 c 0.5085,-7.95921 9.977683,-22.50587 24.126031,-37.06088 2.261625,-2.32656 4.169836,-4.17222 4.240611,-4.10147 0.07438,0.0708 -2.531407,4.73456 -5.782469,10.364 -4.299479,7.44471 -5.911702,10.50316 -5.913273,11.21756 -0.0039,1.80729 1.6495,2.82244 3.394025,2.08402 0.701979,-0.29687 2.018437,-2.366 6.806325,-10.69433 3.265119,-5.67938 6.003804,-10.32615 6.085992,-10.32615 0.348896,0 -1.689292,7.57046 -3.635542,13.50404 -4.036138,12.30488 -10.200431,24.42069 -14.940113,29.3643 -1.436354,1.49812 -3.906737,3.48479 -4.311304,3.46708 -0.101042,-0.004 -1.150937,-0.52438 -2.332562,-1.15521 z m 5.274469,-11.16656 c 0.989229,-0.92938 0.954,-2.49294 -0.08271,-3.52644 -0.658166,-0.65812 -0.978041,-0.75958 -1.918166,-0.60917 -2.060376,0.3298 -2.855032,2.35615 -1.566501,3.99427 0.8235,1.04709 2.528188,1.11459 3.564186,0.14167 z m 4.064081,-6.89338 c 1.904854,-2.42162 -1.351438,-5.51831 -3.52119,-3.34858 -0.954416,0.95437 -1.021625,2.66131 -0.139791,3.54342 0.938541,0.93854 2.849062,0.83687 3.660675,-0.19584 z"
       id="path16071" />
    <path
       style="display:inline;fill:#ffffff;fill-rule:evenodd;stroke:none;stroke-width:0.153455;stroke-linecap:round;stroke-linejoin:round;stroke-dasharray:none;paint-order:fill markers stroke;stop-color:#000000"
       d="m 128.84561,219.71786 c -1.39576,-0.6909 -2.36529,-1.78521 -3.36409,-3.79704 -2.80839,-5.65665 -2.63674,-20.56092 0.40928,-35.55482 0.87477,-4.30565 3.15515,-13.35519 3.53061,-14.01123 0.15063,-0.2625 0.26781,4.64471 0.27281,11.41798 0.006,8.03267 0.12,12.12048 0.34975,12.62621 0.65319,1.43375 2.46204,1.81521 3.76114,0.79333 l 0.80863,-0.63604 v -12.46898 c 0,-7.15948 0.115,-12.34482 0.26875,-12.17741 0.14812,0.1602 0.835,2.43229 1.5267,5.04868 4.75829,17.99806 5.99108,35.34015 3.11175,43.77459 -0.77143,2.259 -2.42434,4.28754 -4.12312,5.05912 -1.77387,0.80584 -4.84567,0.77084 -6.55315,-0.075 z m 5.14301,-13.21567 c 1.79329,-1.925 -0.32163,-4.938 -2.75763,-3.92892 -1.5125,0.62646 -1.94229,2.45552 -0.89106,3.79194 0.83764,1.065 2.71834,1.13562 3.64869,0.1375 z m -0.18271,-7.63717 c 0.62344,-0.49062 0.80862,-0.90666 0.80862,-1.81916 0,-2.20575 -2.59215,-3.26701 -4.15726,-1.70188 -2.21888,2.21892 0.87212,5.46917 3.34864,3.52117 z"
       id="path16073" />
    <path
       style="display:inline;fill:#ffffff;fill-rule:evenodd;stroke:none;stroke-width:0.153455;stroke-linecap:round;stroke-linejoin:round;stroke-dasharray:none;paint-order:fill markers stroke;stop-color:#000000"
       d="m 128.56234,95.765381 c -2.08277,-7.440296 -3.89458,-16.642092 -4.74381,-24.092467 -0.54488,-4.782548 -0.4655,-15.342974 0.13808,-18.261174 1.35657,-6.562366 3.71078,-9.203891 8.20274,-9.203891 3.249,0 5.23387,1.29577 6.73414,4.396308 1.58313,3.271696 2.00457,6.217285 1.98298,13.86144 -0.0165,7.20665 -0.42416,11.431131 -1.83177,19.181904 -0.87221,4.800894 -3.5832,15.918057 -4.09682,16.800198 -0.21907,0.375625 -0.3175,-3.183235 -0.32413,-11.679627 -0.006,-7.364887 -0.12896,-12.442896 -0.31,-12.781227 -0.40512,-0.756292 -1.99644,-1.284792 -2.8695,-0.952854 -1.59602,0.606791 -1.57625,0.450354 -1.74071,13.801062 l -0.15375,12.459792 z m 5.34169,-26.447797 c 1.03063,-0.968187 0.98183,-2.7575 -0.0985,-3.60715 -1.09452,-0.860979 -2.41672,-0.814687 -3.34863,0.117292 -2.23938,2.239406 1.13804,5.659004 3.44694,3.489923 z m -0.0413,-7.758766 c 1.60304,-1.603 0.53825,-4.157244 -1.73319,-4.157244 -0.87885,0 -1.30264,0.191666 -1.78793,0.808646 -1.9054,2.422343 1.35079,5.518948 3.52112,3.348598 z"
       id="path16075" />
    <path
       style="display:inline;fill:#ffffff;fill-rule:evenodd;stroke:none;stroke-width:0.153455;stroke-linecap:round;stroke-linejoin:round;stroke-dasharray:none;paint-order:fill markers stroke;stop-color:#000000"
       d="M 85.167035,59.620499 C 75.306841,49.595005 68.395261,40.432836 64.161103,31.774555 62.033522,27.4239 61.259203,24.905659 61.269291,22.369484 l 0.0066,-1.643709 3.753113,-2.196218 c 2.064166,-1.207938 4.324285,-2.480188 5.022373,-2.827282 l 1.269354,-0.631062 1.399917,0.92725 c 5.784864,3.831744 13.083729,17.076952 18.248975,33.116521 1.756646,5.455 3.547319,11.964038 3.346481,12.16485 -0.07445,0.07509 -2.743435,-4.389429 -5.929765,-9.921056 -3.186327,-5.531629 -6.034981,-10.302011 -6.330402,-10.600848 -0.690398,-0.698431 -2.426646,-0.701756 -3.264383,-0.0062 -1.549729,1.286688 -1.41825,1.620208 5.033617,12.771484 3.307291,5.716106 5.962468,10.443583 5.900623,10.5055 -0.05771,0.06188 -2.113438,-1.92175 -4.558773,-4.408173 z M 77.634184,38.032373 c 0.797876,-0.363666 1.429417,-1.445541 1.429417,-2.449843 0,-0.966688 -1.359125,-2.119969 -2.498344,-2.119969 -2.198781,0 -3.230562,2.585625 -1.658937,4.15724 0.823521,0.823125 1.576646,0.937083 2.727844,0.412562 z m -3.313743,-7.1646 c 1.58875,-1.588791 0.502708,-4.157241 -1.757313,-4.157241 -1.20475,0 -2.399937,1.222708 -2.399937,2.455281 0,0.597979 0.27875,1.227104 0.75325,1.701958 0.474604,0.474875 1.103979,0.753313 1.701937,0.753313 0.597792,0 1.227188,-0.278438 1.702,-0.753313 z"
       id="path16077" />
    <path
       style="display:inline;fill:#ffffff;fill-rule:evenodd;stroke:none;stroke-width:0.153455;stroke-linecap:round;stroke-linejoin:round;stroke-dasharray:none;paint-order:fill markers stroke;stop-color:#000000"
       d="m 174.81962,63.753355 c 0,-0.130208 2.62408,-4.766258 5.83133,-10.301775 3.3875,-5.846706 5.83125,-10.390431 5.83125,-10.842119 0,-2.258562 -2.90066,-3.276473 -4.34618,-1.525146 -0.39438,0.478334 -3.26754,5.30599 -6.38384,10.728125 -3.11627,5.422136 -5.71243,9.811998 -5.76914,9.755248 -0.17084,-0.17 1.40375,-6.115787 2.88377,-10.894787 4.34579,-14.03294 10.94498,-27.188426 16.34612,-32.586009 1.11438,-1.113812 2.47525,-2.25675 3.02388,-2.539906 1.18229,-0.610187 0.89958,-0.72325 7.07769,2.829531 l 4.08525,2.34925 -0.19792,1.994917 c -0.69175,6.978002 -7.82152,18.996105 -18.35442,30.940096 -2.91183,3.301886 -10.02746,10.463744 -10.02746,10.092576 z m 14.79119,-26.313254 c 0.78062,-0.780855 0.90208,-1.093688 0.7425,-1.918188 -0.24563,-1.27 -1.21292,-2.059333 -2.52427,-2.059333 -2.26219,0 -3.18996,2.669531 -1.46667,4.220018 1.06104,0.9545 2.13106,0.874625 3.24808,-0.2425 z M 193.34633,30.985 c 1.71438,-1.3485 0.64583,-4.274468 -1.56063,-4.274468 -1.19937,0 -2.54125,1.137729 -2.54125,2.154593 0,2.277188 2.35478,3.49415 4.10188,2.119875 z"
       id="path16079" />
    <path
       style="display:inline;fill:#ffffff;fill-rule:evenodd;stroke:none;stroke-width:0.153455;stroke-linecap:round;stroke-linejoin:round;stroke-dasharray:none;paint-order:fill markers stroke;stop-color:#000000"
       d="m 163.62584,117.14241 c 0.33321,-0.22746 4.7487,-2.79669 9.81274,-5.70932 5.06396,-2.91265 9.51804,-5.58185 9.89781,-5.93156 1.45146,-1.3365 0.35146,-4.21176 -1.61146,-4.21176 -0.47458,0 -4.96795,2.40881 -11.13152,5.96711 -5.68491,3.28191 -10.40881,5.89183 -10.49753,5.79983 -0.21581,-0.22367 7.49332,-7.68196 11.69335,-11.31274 12.08277,-10.445408 23.90941,-17.127154 30.34548,-17.144406 2.5825,-0.0069 3.57691,0.384208 5.10762,2.009021 2.42596,2.575062 2.98078,5.602885 1.54563,8.435054 -2.93037,5.782781 -15.07756,12.961871 -31.51299,18.624401 -4.02257,1.38588 -12.79417,3.88796 -13.63025,3.88796 -0.61846,0 -0.61846,-0.004 -0.0165,-0.41359 z m 26.25601,-15.52212 c 1.00438,-1.00438 1.13708,-1.999753 0.40604,-3.043784 -0.68791,-0.98273 -1.74291,-1.321667 -2.87964,-0.925417 -2.04021,0.711229 -2.1358,3.430451 -0.15834,4.511921 1.00146,0.54771 1.68229,0.40732 2.63234,-0.54273 z m 6.89588,-3.846041 c 2.21887,-2.218906 -0.87209,-5.469175 -3.34865,-3.521143 -1.68833,1.32802 -0.55313,4.27447 1.64667,4.27447 0.59771,0 1.22708,-0.278437 1.70208,-0.753333 z"
       id="path16081" />
    <path
       style="display:inline;fill:#ffffff;fill-rule:evenodd;stroke:none;stroke-width:0.153455;stroke-linecap:round;stroke-linejoin:round;stroke-dasharray:none;paint-order:fill markers stroke;stop-color:#000000"
       d="m 242.47448,140.86262 c -6.84468,-0.52784 -14.94804,-1.92245 -23.25735,-4.00268 -8.38267,-2.09863 -8.47296,-2.06342 5.36475,-2.09189 11.45877,-0.024 12.20737,-0.0587 12.88323,-0.60607 0.54646,-0.44268 0.71771,-0.88902 0.71771,-1.87421 0,-0.98522 -0.17084,-1.43154 -0.71771,-1.87422 -0.67709,-0.5485 -1.40584,-0.58111 -13.01115,-0.58111 -6.76142,0 -12.21581,-0.0779 -12.12081,-0.17292 0.33333,-0.33287 7.802,-2.30475 12.66635,-3.34396 16.48834,-3.52255 31.01711,-3.84017 37.35298,-0.81656 1.71709,0.81946 1.75375,0.82354 1.87625,0.20584 0.0646,-0.34644 0.125,2.61578 0.125,6.58258 0,3.96682 -0.0604,6.92594 -0.125,6.57584 l -0.125,-0.63656 -1.44333,0.7066 c -3.91583,1.91686 -11.25083,2.61788 -20.184,1.92898 z m 2.79507,-6.87294 c 1.52229,-1.52235 0.44395,-4.15724 -1.70209,-4.15724 -1.26166,0 -2.45525,1.19354 -2.45525,2.45528 0,1.26175 1.19354,2.45528 2.45525,2.45528 0.59771,0 1.22709,-0.27843 1.70209,-0.75332 z m 7.80566,-0.007 c 0.97875,-1.04169 0.91521,-2.54719 -0.14583,-3.45976 -1.39125,-1.1969 -3.15044,-0.8149 -3.83275,0.83229 -0.44,1.06163 -0.0165,2.55769 0.87937,3.07878 0.94125,0.55 2.35125,0.34469 3.09907,-0.45127 z"
       id="path16083" />
    <path
       style="display:inline;fill:#ffffff;fill-rule:evenodd;stroke:none;stroke-width:0.153455;stroke-linecap:round;stroke-linejoin:round;stroke-dasharray:none;paint-order:fill markers stroke;stop-color:#000000"
       d="m 199.49516,179.72631 c -7.02446,-1.59077 -17.73585,-8.21398 -28.35846,-17.535 -4.63302,-4.06532 -10.9139,-10.19158 -10.68429,-10.4212 0.1,-0.0998 4.73827,2.45043 10.30775,5.66709 6.21994,3.59235 10.44146,5.84848 10.94325,5.84848 1.96354,0 3.03942,-2.69378 1.63292,-4.08897 -0.37946,-0.37678 -5.21554,-3.29183 -10.74625,-6.47788 -5.53069,-3.18604 -10.00116,-5.84743 -9.93435,-5.91418 0.18583,-0.18583 5.92608,1.32123 10.91289,2.8656 14.00681,4.33771 27.13129,10.93185 32.55709,16.35765 2.43258,2.43262 3.50886,4.47006 3.49613,6.61856 -0.0165,2.48821 -1.94167,5.63014 -4.15503,6.77473 -1.24667,0.64458 -3.87856,0.77916 -5.97165,0.305 z m -2.71743,-9.52118 c 0.8227,-0.82313 0.93708,-1.57667 0.4125,-2.72788 -0.36375,-0.79812 -1.44563,-1.42937 -2.44977,-1.42937 -0.96667,0 -2.11998,1.35916 -2.11998,2.49827 0,2.19879 2.58562,3.23058 4.15727,1.65895 z m -6.89588,-3.82673 c 1.04938,-1.0493 1.14333,-2.08319 0.28792,-3.1703 -0.79959,-1.01637 -1.93229,-1.2801 -3.03942,-0.70758 -2.28137,1.17975 -1.32,4.72215 1.29354,4.76565 0.30834,0.005 0.96438,-0.39438 1.45771,-0.88771 z"
       id="path16085" />
    <path
       style="display:inline;fill:#ffffff;fill-rule:evenodd;stroke:none;stroke-width:0.153455;stroke-linecap:round;stroke-linejoin:round;stroke-dasharray:none;paint-order:fill markers stroke;stop-color:#000000"
       d="m 191.15358,248.17202 c -5.63677,-4.14956 -12.48271,-16.7041 -17.50277,-32.09775 -1.76667,-5.41725 -3.52721,-11.84573 -3.37186,-12.31177 0.0583,-0.17292 2.58738,4.00165 5.6219,9.27627 3.03458,5.27461 5.84044,9.97988 6.23517,10.45615 1.4425,1.74021 4.34618,0.72854 4.34618,-1.51417 0,-0.43271 -2.53604,-5.14241 -5.8577,-10.8786 -3.22182,-5.56365 -5.77686,-10.19669 -5.67788,-10.29567 0.1,-0.1 1.79479,1.46583 3.76823,3.4774 14.13877,14.41096 23.80169,29.2106 24.52094,37.55585 l 0.17292,2.01 -2.095,1.21834 c -3.50673,2.03937 -7.91461,4.45941 -8.12263,4.45941 -0.10833,0 -1.025,-0.61 -2.03771,-1.35541 z m 2.38762,-10.92091 c 0.93855,-0.93854 0.83688,-2.84911 -0.19583,-3.66067 -2.42158,-1.90479 -5.51829,1.35146 -3.34854,3.52115 0.95437,0.95437 2.66127,1.02166 3.54344,0.13958 z m -4.02481,-6.67531 c 0.35563,-0.29521 0.7325,-0.98042 0.83729,-1.5223 0.16042,-0.82458 0.0417,-1.13729 -0.7425,-1.91812 -1.03791,-1.03813 -2.02604,-1.17979 -3.07966,-0.44167 -1.38084,0.96709 -1.4475,3.03509 -0.12917,4.03559 0.7275,0.5525 2.362,0.47187 3.11513,-0.15417 z"
       id="path16087" />
    <path
       style="display:inline;fill:#ffffff;fill-rule:evenodd;stroke:none;stroke-width:0.0383638;stroke-linecap:round;stroke-linejoin:round;stroke-dasharray:none;paint-order:fill markers stroke;stop-color:#000000"
       d="m 29.091325,215.02063 c -0.479562,-0.60771 -0.64575,-0.87063 -0.575479,-0.90979 0.28375,-0.15834 7.880119,-2.17405 7.945271,-2.10888 0.01654,0.0149 -0.0875,0.0958 -0.226562,0.17917 -0.630021,0.38083 -6.29915,3.63696 -6.378938,3.6636 -0.04979,0.0165 -0.39275,-0.35479 -0.763979,-0.82479 z"
       id="path16089" />
    <path
       style="display:inline;fill:#ffffff;fill-rule:evenodd;stroke:none;stroke-width:0.0383638;stroke-linecap:round;stroke-linejoin:round;stroke-dasharray:none;paint-order:fill markers stroke;stop-color:#000000"
       d="m 34.073926,220.87604 c -0.854521,-0.94354 -1.176251,-1.34708 -0.874188,-1.09625 0.07437,0.0583 0.887833,-0.37937 3.074875,-1.64729 1.638438,-0.94979 2.99325,-1.7125 3.010875,-1.695 0.01654,0.0174 -1.035583,1.12 -2.3405,2.44984 l -2.372469,2.41787 0.27875,0.27854 c 0.152917,0.15209 0.259688,0.2975 0.235625,0.32104 -0.02479,0.0229 -0.479562,-0.43937 -1.012833,-1.02854 z"
       id="path16091" />
    <path
       style="display:inline;fill:#ffffff;fill-rule:evenodd;stroke:none;stroke-width:0.0383638;stroke-linecap:round;stroke-linejoin:round;stroke-dasharray:none;paint-order:fill markers stroke;stop-color:#000000"
       d="m 6.6028976,173.4805 c -0.1647917,-0.50083 -0.3125208,-0.94833 -0.3299167,-0.99437 -0.033125,-0.0917 1.0784375,-0.40646 4.4302811,-1.2575 1.137063,-0.28875 2.065959,-0.50209 2.06425,-0.47417 -0.0017,0.0271 -1.311583,0.80375 -2.9109998,1.72458 -1.5993958,0.92063 -2.9186875,1.7275 -2.93175,1.79313 -0.016538,0.0646 -0.1579167,-0.29063 -0.3224584,-0.79167 z"
       id="path16093" />
    <path
       style="display:inline;fill:#ffffff;fill-rule:evenodd;stroke:none;stroke-width:0.0383638;stroke-linecap:round;stroke-linejoin:round;stroke-dasharray:none;paint-order:fill markers stroke;stop-color:#000000"
       d="m 9.0180476,180.21683 c -0.225625,-0.57666 -0.4283125,-1.09729 -0.4514375,-1.15708 -0.024792,-0.0667 -0.00827,-0.0875 0.04125,-0.0563 0.049583,0.0292 1.6116669,-0.82937 3.4757169,-1.90854 1.864,-1.07917 3.405683,-1.94542 3.425939,-1.92521 0.04125,0.0438 -5.6004829,5.74777 -5.8906996,5.95519 l -0.194375,0.13958 z"
       id="path16095" />
    <path
       style="display:inline;fill:#ffffff;fill-rule:evenodd;stroke:none;stroke-width:0.0767275;stroke-linecap:round;stroke-linejoin:round;stroke-dasharray:none;paint-order:fill markers stroke;stop-color:#000000"
       d="m 9.6251018,93.128299 c -1.772375,-0.46875 -3.2452813,-0.872479 -3.2730625,-0.897187 -0.04125,-0.03562 0.4233333,-1.711438 0.5184166,-1.878084 0.033125,-0.05167 5.9219521,3.330471 6.1225401,3.514157 0.224062,0.205208 0.09333,0.176875 -3.3683129,-0.738834 z"
       id="path16097" />
    <path
       style="display:inline;fill:#ffffff;fill-rule:evenodd;stroke:none;stroke-width:0.0767275;stroke-linecap:round;stroke-linejoin:round;stroke-dasharray:none;paint-order:fill markers stroke;stop-color:#000000"
       d="m 11.926891,87.37821 c -1.772375,-1.023 -3.2424684,-1.876188 -3.2669434,-1.895959 -0.024792,-0.01976 0.150625,-0.526687 0.388625,-1.126458 l 0.4324375,-1.0905 2.9861559,2.989125 c 1.642396,1.644042 2.917844,2.98794 2.83425,2.986471 -0.08354,-0.0015 -1.602125,-0.839667 -3.374593,-1.862667 z"
       id="path16099" />
    <path
       style="display:inline;fill:#ffffff;fill-rule:evenodd;stroke:none;stroke-width:0.0767275;stroke-linecap:round;stroke-linejoin:round;stroke-dasharray:none;paint-order:fill markers stroke;stop-color:#000000"
       d="m 35.910382,46.231938 -2.717844,-1.567146 0.684625,-0.688229 0.684583,-0.688208 1.699125,1.685687 c 1.74098,1.727209 2.723063,2.841063 2.496,2.830844 -0.07437,-0.0032 -1.35102,-0.711 -2.84575,-1.572917 z"
       id="path16101" />
    <path
       style="display:inline;fill:#ffffff;fill-rule:evenodd;stroke:none;stroke-width:0.0767275;stroke-linecap:round;stroke-linejoin:round;stroke-dasharray:none;paint-order:fill markers stroke;stop-color:#000000"
       d="m 33.410646,51.887567 c -1.688021,-0.446416 -3.497543,-0.935291 -4.021168,-1.086416 -1.078584,-0.31125 -1.07825,-0.305313 -0.08271,-1.446688 l 0.596146,-0.68125 3.401963,1.961354 c 1.871104,1.07875 3.401962,1.989521 3.401962,2.023959 0,0.09937 -0.06625,0.08312 -3.299271,-0.771 z"
       id="path16103" />
    <path
       style="display:inline;fill:#ffffff;fill-rule:evenodd;stroke:none;stroke-width:0.0767275;stroke-linecap:round;stroke-linejoin:round;stroke-dasharray:none;paint-order:fill markers stroke;stop-color:#000000"
       d="m 110.9974,5.8022547 c -0.008,-2.9794688 -0.0577,-3.8787188 -0.20667,-3.8919501 -0.25625,-0.022917 1.86111,-0.4216875 2.30313,-0.4337083 0.28594,-0.00778 0.31998,0.0375 0.19604,0.2590625 -0.0827,0.1479166 -0.45888,1.477 -0.83675,2.954 -0.37788,1.477 -0.85608,3.2033792 -1.06346,3.8363813 l -0.37704,1.1508959 z"
       id="path16105" />
    <path
       style="display:inline;fill:#ffffff;fill-rule:evenodd;stroke:none;stroke-width:0.0767275;stroke-linecap:round;stroke-linejoin:round;stroke-dasharray:none;paint-order:fill markers stroke;stop-color:#000000"
       d="M 105.49936,8.7562714 C 105.31102,8.1654589 104.89661,6.6984172 104.57861,5.4961609 104.0825,3.6228484 103.956,3.3082234 103.69317,3.2960671 c -0.16875,-0.00779 0.24563,-0.1389583 0.92075,-0.2915625 0.67554,-0.1525 1.24619,-0.2603125 1.26894,-0.239375 0.0248,0.020833 0.0248,1.6190625 0,3.5516292 l -0.0412,3.5137438 z"
       id="path16107" />
    <path
       style="display:inline;fill:#ffffff;fill-rule:evenodd;stroke:none;stroke-width:0.0767275;stroke-linecap:round;stroke-linejoin:round;stroke-dasharray:none;paint-order:fill markers stroke;stop-color:#000000"
       d="m 152.99604,8.4493589 c -0.68625,-2.2734063 -1.83663,-6.8518126 -1.74519,-6.9432418 0.086,-0.086042 2.06731,0.1989583 2.18206,0.3138125 0.0331,0.034167 0.0413,1.8502292 0.0165,4.0361313 l -0.0413,3.9744105 z"
       id="path16109" />
    <path
       style="display:inline;fill:#ffffff;fill-rule:evenodd;stroke:none;stroke-width:0.0767275;stroke-linecap:round;stroke-linejoin:round;stroke-dasharray:none;paint-order:fill markers stroke;stop-color:#000000"
       d="m 158.55807,6.1679963 -0.005,-3.5090042 0.34563,0.094583 c 0.19041,0.052292 0.60439,0.138125 0.92075,0.1910416 0.39854,0.066458 0.57547,0.175625 0.57547,0.3540625 0,0.335125 -1.52218,5.8470939 -1.69781,6.1480939 -0.0829,0.1366666 -0.13666,-1.1970834 -0.13875,-3.2788188 z"
       id="path16111" />
    <path
       style="display:inline;fill:#ffffff;fill-rule:evenodd;stroke:none;stroke-width:0.0767275;stroke-linecap:round;stroke-linejoin:round;stroke-dasharray:none;paint-order:fill markers stroke;stop-color:#000000"
       d="m 227.52761,45.666174 2.44781,-2.451375 0.36625,0.341354 c 0.2,0.187708 0.49771,0.525687 0.65979,0.751 l 0.29334,0.409666 -2.97415,1.700334 c -1.63583,0.935187 -3.03404,1.700333 -3.10729,1.700333 -0.075,0 0.96833,-1.103125 2.31454,-2.451375 z"
       id="path16113" />
    <path
       style="display:inline;fill:#ffffff;fill-rule:evenodd;stroke:none;stroke-width:0.0767275;stroke-linecap:round;stroke-linejoin:round;stroke-dasharray:none;paint-order:fill markers stroke;stop-color:#000000"
       d="m 228.0814,52.504097 c 0.13542,-0.135 6.50685,-3.772742 6.60773,-3.772742 0.0583,0 0.42,0.395437 0.80375,0.878771 l 0.69708,0.878791 -1.26021,0.35075 c -4.3105,1.199688 -7.05075,1.865688 -6.8485,1.664438 z"
       id="path16115" />
    <path
       style="display:inline;fill:#ffffff;fill-rule:evenodd;stroke:none;stroke-width:0.0767275;stroke-linecap:round;stroke-linejoin:round;stroke-dasharray:none;paint-order:fill markers stroke;stop-color:#000000"
       d="m 248.93852,89.431095 c 0,-0.0625 1.34646,-1.459042 2.9925,-3.103219 1.64605,-1.644187 2.99688,-3.093687 3.0025,-3.221085 0.006,-0.1275 0.24063,0.351208 0.52105,1.063625 l 0.51104,1.295292 -2.24719,1.293562 c -1.23583,0.711458 -2.81687,1.629271 -3.51325,2.039583 -0.69625,0.410313 -1.26583,0.694813 -1.26583,0.63225 z"
       id="path16117" />
    <path
       style="display:inline;fill:#ffffff;fill-rule:evenodd;stroke:none;stroke-width:0.0767275;stroke-linecap:round;stroke-linejoin:round;stroke-dasharray:none;paint-order:fill markers stroke;stop-color:#000000"
       d="m 253.0818,92.988839 c 0.80229,-0.470292 2.13125,-1.236417 2.95406,-1.702542 0.89687,-0.508 1.5025,-0.948604 1.51229,-1.099875 0.008,-0.13875 0.17292,0.230938 0.36312,0.821834 0.18959,0.590812 0.30313,1.118041 0.25313,1.171625 -0.1125,0.117291 -5.99121,1.668 -6.31333,1.665645 -0.125,-9.14e-4 0.43,-0.386437 1.23187,-0.856687 z"
       id="path16119" />
    <path
       style="display:inline;fill:#ffffff;fill-rule:evenodd;stroke:none;stroke-width:0.0767275;stroke-linecap:round;stroke-linejoin:round;stroke-dasharray:none;paint-order:fill markers stroke;stop-color:#000000"
       d="m 257.50434,174.41119 c -0.05,-0.12709 -1.41375,-0.98917 -3.02907,-1.91667 -1.6152,-0.9275 -2.87,-1.70896 -2.78781,-1.73625 0.16667,-0.0563 6.099,1.45563 6.38225,1.62604 0.13542,0.0813 0.0979,0.38646 -0.14583,1.18292 -0.19375,0.63562 -0.36458,0.98021 -0.41896,0.84396 z"
       id="path16121" />
    <path
       style="display:inline;fill:#ffffff;fill-rule:evenodd;stroke:none;stroke-width:0.0767275;stroke-linecap:round;stroke-linejoin:round;stroke-dasharray:none;paint-order:fill markers stroke;stop-color:#000000"
       d="m 254.93123,181.49454 c -0.004,-0.1125 -1.32354,-1.51958 -2.93156,-3.12523 -1.60792,-1.60562 -2.89312,-2.94981 -2.85594,-2.98689 0.1,-0.1 6.57125,3.67093 6.64898,3.87358 0.0333,0.0958 -0.14166,0.68375 -0.39354,1.30854 -0.25312,0.62459 -0.46312,1.04313 -0.46771,0.93 z"
       id="path16123" />
    <path
       style="display:inline;fill:#ffffff;fill-rule:evenodd;stroke:none;stroke-width:0.0767275;stroke-linecap:round;stroke-linejoin:round;stroke-dasharray:none;paint-order:fill markers stroke;stop-color:#000000"
       d="m 234.41975,215.93159 c -0.0896,-0.0958 -1.5977,-0.99709 -3.35243,-2.00396 -1.7548,-1.00667 -3.1205,-1.85375 -3.03511,-1.88229 0.27521,-0.0917 7.66317,1.8702 7.90592,2.09935 0.0667,0.0625 -0.2125,0.52875 -0.61854,1.03667 -0.53584,0.66979 -0.78292,0.87583 -0.90021,0.75 z"
       id="path16125" />
    <path
       style="display:inline;fill:#ffffff;fill-rule:evenodd;stroke:none;stroke-width:0.0767275;stroke-linecap:round;stroke-linejoin:round;stroke-dasharray:none;paint-order:fill markers stroke;stop-color:#000000"
       d="m 227.60821,218.97813 c -1.30812,-1.32063 -2.30221,-2.37602 -2.20883,-2.3455 0.44729,0.14583 5.73831,3.26791 5.73831,3.3855 0,0.075 -0.25875,0.41062 -0.57542,0.74771 l -0.57541,0.61312 z"
       id="path16127" />
    <path
       style="fill:#ffffff;fill-rule:evenodd;stroke-width:0.121803;stroke-linecap:round;stroke-linejoin:round;paint-order:fill markers stroke;stop-color:#000000"
       d="m 112.91094,263.09416 c -0.134,-0.0452 -0.65469,-0.15136 -1.15713,-0.23542 l -0.91352,-0.1528 0.007,-3.82574 c 0.004,-2.28474 0.0926,-3.67856 0.21889,-3.46033 0.1163,0.20097 0.60908,1.8453 1.09506,3.65407 0.486,1.80877 0.99134,3.48051 1.12302,3.71498 0.23079,0.41093 0.14486,0.4811 -0.37372,0.30521 z"
       id="path18468" />
    <path
       style="fill:#ffffff;fill-rule:evenodd;stroke-width:0.121803;stroke-linecap:round;stroke-linejoin:round;paint-order:fill markers stroke;stop-color:#000000"
       d="m 104.55686,261.5803 c -0.3832,-0.0734 -0.52238,-0.23515 -0.44312,-0.51494 0.0636,-0.2244 0.40746,-1.5042 0.76426,-2.84403 0.3568,-1.33983 0.69323,-2.48173 0.74765,-2.53755 0.0546,-0.0558 0.099,1.28704 0.099,2.98416 0,2.32382 -0.0752,3.07747 -0.3045,3.05249 -0.16746,-0.0182 -0.55592,-0.0813 -0.86322,-0.14012 z"
       id="path18499" />
    <path
       style="fill:#ffffff;fill-rule:evenodd;stroke-width:0.121803;stroke-linecap:round;stroke-linejoin:round;paint-order:fill markers stroke;stop-color:#000000"
       d="m 151.27873,262.96467 c 0,-0.3875 1.90049,-7.33404 2.04643,-7.47997 0.0803,-0.0803 0.14602,1.5145 0.14602,3.54402 v 3.69003 l -0.66992,0.14111 c -0.36843,0.0776 -0.86174,0.17903 -1.09622,0.22545 -0.23448,0.0463 -0.42631,-0.008 -0.42631,-0.12061 z"
       id="path18501" />
    <path
       style="fill:#ffffff;fill-rule:evenodd;stroke-width:0.121803;stroke-linecap:round;stroke-linejoin:round;paint-order:fill markers stroke;stop-color:#000000"
       d="m 158.60782,258.40405 c 0.0127,-2.06551 0.0962,-3.11611 0.21723,-2.74056 0.10799,0.33497 0.51881,1.77739 0.91303,3.20541 l 0.71674,2.59639 -0.72082,0.14414 c -0.39643,0.0793 -0.81673,0.14415 -0.93396,0.14415 -0.11724,0 -0.20373,-1.50731 -0.19221,-3.34957 z"
       id="path18503" />
    <g
       aria-label="doodles.by.cass"
       id="text3523"
       style="font-weight:bold;font-size:19.7556px;font-family:'Dancing Script';-inkscape-font-specification:'Dancing Script, Bold';text-align:center;text-anchor:middle;fill:#ffffff;stroke:#000000;stroke-width:7.9375;stroke-linecap:round;stroke-linejoin:round;paint-order:markers stroke fill;stop-color:#000000">
      <path
         id="path18604"
         d="m 245.9362,165.47802 q -0.31433,0.93643 -0.90252,1.385 -0.56318,0.43612 -1.22549,0.48471 -0.68104,0.0423 -1.29909,-0.16516 -0.54313,-0.18232 -0.79249,-0.43273 -0.24937,-0.25042 -0.30503,-0.51917 -0.0744,-0.27504 -0.0864,-0.48747 -0.006,-0.23116 -0.068,-0.35624 -0.32978,-0.63167 -0.8031,-1.33236 -0.48576,-0.72571 -1.15292,-1.34559 l -0.18728,-0.0629 q -0.74915,-0.25147 -0.96708,-0.59553 -0.23037,-0.36907 -0.11721,-0.70619 0.0754,-0.22474 0.21925,-0.28066 0.15009,-0.0746 0.3062,-0.0431 0.11237,0.0377 0.24334,0.1442 0.13726,0.0877 0.39946,0.17577 0.56186,0.1886 1.38029,0.17158 0.80599,-0.042 1.69933,-0.0339 0.89963,-0.0106 1.74242,0.2723 0.22474,0.0754 0.40574,0.15703 0.181,0.0816 0.33699,0.17564 0.0451,-0.63088 -0.25329,-1.3562 -0.31707,-0.7316 -1.12122,-1.56418 l 0.244,-0.16816 q 0.94808,0.71419 1.37726,1.60845 0.41046,0.88798 0.25852,1.83724 0.66729,0.55742 0.80926,1.37611 0.14825,0.79996 -0.14094,1.66148 z m -0.86807,-0.14551 q 0.12574,-0.37458 0.0453,-0.75583 -0.0804,-0.38125 -0.37339,-0.68799 -0.42632,0.7113 -1.06454,1.18475 -0.63821,0.47345 -1.20086,0.65968 -0.0318,0.28106 0.41766,0.43194 0.61804,0.20747 1.28062,0.0339 0.66258,-0.17353 0.89518,-0.86649 z m -0.83963,-1.78225 q -0.11853,-0.0815 -0.28708,-0.13804 -0.181,-0.0816 -0.27465,-0.11303 -0.84907,-0.26417 -1.74228,-0.33477 -0.89322,-0.0706 -1.82389,-0.15377 0.46743,0.532 0.99078,1.20781 0.52335,0.6758 0.80336,1.20741 0.60626,-0.12991 1.25063,-0.55962 0.64438,-0.42971 1.08313,-1.11599 z m -0.70729,8.47533 q -0.35567,0.92153 -0.96323,1.34349 -0.58202,0.41064 -1.24584,0.42972 -0.68225,0.012 -1.29045,-0.22278 -0.53449,-0.2063 -0.77246,-0.46756 -0.23798,-0.26126 -0.28164,-0.53222 -0.0621,-0.27807 -0.0647,-0.49083 0.005,-0.23119 -0.0521,-0.35891 -0.30136,-0.64571 -0.74304,-1.36676 -0.453,-0.7466 -1.09192,-1.39554 l -0.18431,-0.0711 q -0.73722,-0.28454 -0.93963,-0.63795 -0.21373,-0.37896 -0.0857,-0.7107 0.0854,-0.22117 0.23151,-0.27064 0.15326,-0.0679 0.30782,-0.0294 0.11058,0.0427 0.23669,0.15489 0.13321,0.0938 0.39124,0.19335 0.55291,0.21341 1.37129,0.23281 0.80706,-0.006 1.69916,0.0417 0.89921,0.0294 1.72858,0.34953 0.22117,0.0854 0.39836,0.17493 0.17719,0.0896 0.32884,0.19045 0.0731,-0.62825 -0.19272,-1.36612 -0.28421,-0.74498 -1.05053,-1.6125 l 0.25124,-0.15715 q 0.91537,0.75565 1.30435,1.66812 0.37055,0.90536 0.17655,1.84693 0.64183,0.58654 0.74724,1.41074 0.11252,0.80576 -0.2147,1.65356 z m -0.86073,-0.18398 q 0.14227,-0.36861 0.0789,-0.75306 -0.0634,-0.38445 -0.34242,-0.70391 -0.45752,0.69162 -1.11617,1.13622 -0.65865,0.44459 -1.22902,0.60562 -0.0443,0.27936 0.39803,0.45009 0.60821,0.23474 1.27785,0.0909 0.66964,-0.14389 0.93284,-0.82582 z m -0.75953,-1.81782 q -0.11479,-0.0867 -0.28066,-0.15068 -0.17719,-0.0896 -0.26935,-0.12513 -0.83648,-0.30168 -1.72567,-0.41194 -0.88919,-0.11026 -1.81524,-0.23475 0.4433,0.55227 0.93608,1.25069 0.49277,0.69842 0.74885,1.24195 0.61144,-0.10282 1.27429,-0.50344 0.66285,-0.40062 1.1317,-1.0667 z m -2.40677,11.18492 q -0.26576,0.59531 -0.85592,0.85109 -0.5982,0.27381 -1.39194,-0.0805 -0.63139,-0.28187 -1.24216,-0.90069 -0.61077,-0.61883 -1.10686,-1.44607 -0.49609,-0.82724 -0.78344,-1.73437 -0.30538,-0.91519 -0.33598,-1.81588 -0.0306,-0.90069 0.29958,-1.64032 0.34629,-0.7757 0.98477,-1.13971 0.63847,-0.36402 1.28789,-0.0741 0.48707,0.21744 0.55053,0.65684 0.0635,0.43939 -0.23612,0.86815 -0.14625,-0.10856 -0.30055,-0.19908 -0.14625,-0.10856 -0.32665,-0.18909 -0.36079,-0.16107 -0.71385,-0.1456 -0.35306,0.0155 -0.56245,0.48449 -0.22549,0.50511 -0.11629,1.18127 0.10921,0.67616 0.45099,1.41289 0.3318,0.71063 0.83015,1.38743 0.4803,0.66875 1.01505,1.1671 0.53474,0.49834 1.03985,0.72383 0.57727,0.25771 0.7625,-0.1572 0.18522,-0.41491 0.0138,-1.09719 -0.18942,-0.69034 -0.57727,-1.46926 -0.3798,-0.79696 -0.8018,-1.54786 -0.44004,-0.75895 -0.73801,-1.30304 -0.066,-0.0944 -0.0258,-0.18458 0.0503,-0.0641 0.21099,-0.23033 0.15076,-0.19231 0.35757,-0.31634 0.20682,-0.12402 0.40525,-0.0354 0.1804,0.0805 0.39655,0.37174 0.20617,0.26512 0.45228,0.63461 0.23613,0.34339 0.5064,0.65876 0.26028,0.28928 0.56696,0.42619 0.23451,0.10469 0.50736,0.0751 0.25481,-0.0377 0.38366,-0.32633 0.19328,-0.43295 -0.0918,-1.49052 -0.29508,-1.08366 -1.46604,-2.57998 l 0.49577,-0.18974 q 0.78085,0.86783 1.2647,1.81942 0.47386,0.9255 0.5908,1.77819 0.13498,0.86074 -0.17105,1.54625 -0.33019,0.73962 -0.96029,0.89103 -0.63009,0.1514 -1.18739,-0.0541 -0.0361,-0.0161 -0.0541,-0.0242 -0.018,-0.008 -0.0361,-0.0161 0.54376,1.10815 0.77506,1.94699 0.23934,0.8208 -0.0667,1.5063 z m -2.31174,4.99573 q -0.46648,0.91527 -1.35234,1.21768 -0.85928,0.29377 -2.03857,-0.30727 -0.86246,-0.43958 -1.51928,-1.19564 -0.65681,-0.75605 -1.021,-1.65122 -0.38178,-0.90413 -0.41914,-1.78795 -0.0284,-0.90141 0.33941,-1.62306 0.37678,-0.73926 0.90788,-0.86769 0.54008,-0.14604 1.03291,0.10514 0.49284,0.25119 0.84248,0.73982 0.34102,0.46206 0.13469,0.86689 -0.17045,0.33443 -0.61253,0.3752 -0.0335,-0.23881 -0.26924,-0.60287 -0.23575,-0.36407 -0.76379,-0.63319 -0.14081,-0.0718 -0.2471,-0.0373 -0.12389,0.0255 -0.22257,0.21917 -0.22427,0.44003 -0.0706,1.1392 0.14501,0.67259 0.56336,1.41798 0.40971,0.71881 0.9792,1.34167 0.56086,0.59628 1.14171,0.89232 0.49284,0.25118 1.04086,0.22007 0.53939,-0.0577 0.91617,-0.79695 0.3409,-0.66885 0.32147,-1.58786 -0.0194,-0.91902 -0.38292,-1.90253 -0.3811,-0.99249 -1.15182,-1.87311 l 0.49625,-0.19055 q 0.85838,0.96965 1.31749,2.15711 0.45049,1.16089 0.45924,2.31837 0.0353,1.14886 -0.4222,2.04652 z m -3.48272,4.5069 q -0.23154,0.41375 -0.5349,0.47037 -0.32059,0.047 -0.5447,-0.0785 -0.18964,-0.10612 -0.30004,-0.39429 -0.12763,-0.29782 -0.12083,-0.6336 -0.0104,-0.34542 0.11498,-0.56954 0.10612,-0.18963 0.33293,-0.31173 0.20956,-0.13175 0.51987,0.0419 0.13792,0.0772 0.33863,0.32534 0.18347,0.2385 0.27457,0.56115 0.0835,0.29576 -0.0805,0.58884 z m 0.20485,9.98782 q -0.26001,0.41991 -0.75756,0.62302 -0.47035,0.19672 -1.04143,-0.15689 -0.53748,-0.33281 -0.77658,-0.92235 -0.2223,-0.57914 -0.27981,-1.31184 -0.0407,-0.72229 0.0106,-1.48058 0.0785,-0.76467 0.15934,-1.45816 -0.37269,-0.48637 -0.97652,-1.16234 -0.61024,-0.70316 -1.14449,-1.26633 0.39983,0.9679 0.5901,1.89898 0.19027,0.93108 -0.25695,1.65332 -0.1872,0.30234 -0.51278,0.56546 -0.34238,0.25273 -0.79032,0.30067 -0.45433,0.0207 -0.97502,-0.30166 -0.43671,-0.27041 -0.96457,-0.80639 -0.51746,-0.55278 -0.95973,-1.15194 -0.44866,-0.62635 -0.66857,-1.1343 -0.23671,-0.51835 -0.1119,-0.71991 0.0624,-0.10077 0.26078,-0.23353 0.19199,-0.15996 0.44077,-0.26152 0.23197,-0.11195 0.41434,-0.0687 0.10796,0.27597 0.37987,0.69994 0.25511,0.41357 0.62141,0.87274 0.3495,0.44877 0.7134,0.83675 0.3743,0.37119 0.69343,0.5688 0.25195,0.156 0.49911,0.16963 0.24716,0.0136 0.42397,-0.27192 0.2288,-0.36952 0.16568,-0.94304 -0.0527,-0.59032 -0.29422,-1.25104 -0.23109,-0.67753 -0.53098,-1.28147 -0.0968,-0.1064 -0.32792,-0.29599 -0.23114,-0.1896 -0.44788,-0.43999 -0.23354,-0.26079 -0.34388,-0.60795 -0.1,-0.36395 0.13926,-0.75027 0.0832,-0.13437 0.1728,-0.24154 0.0896,-0.10718 0.22719,-0.25434 0.25195,0.156 0.87659,0.79838 0.61824,0.61517 1.39882,1.49353 0.78059,0.87836 1.51957,1.8239 0.15128,-0.88225 -0.0358,-2.0437 -0.19343,-1.18865 -1.12836,-2.41817 l 0.41196,-0.13993 q 0.68381,0.77196 0.98286,1.67746 0.30946,0.8887 0.35095,1.79737 0.0415,0.90867 -0.0786,1.74053 0.81095,1.12952 1.40194,2.23902 0.60139,1.09271 0.77486,2.01339 0.19027,0.93108 -0.22574,1.60294 z m -0.72547,-0.21685 q 0.19761,-0.31913 -0.12064,-1.30622 -0.31824,-0.98709 -1.29794,-2.40699 -0.0641,0.70389 -0.0546,1.47658 0.0367,0.76629 0.21101,1.38542 0.17431,0.61912 0.59422,0.87913 0.16796,0.104 0.36073,0.13042 0.20317,0.01 0.30717,-0.15834 z m -6.74043,3.86064 q -0.64629,0.92214 -1.56884,0.99931 -0.89504,0.0723 -1.89808,-0.63066 -0.79272,-0.55557 -1.68389,-1.59026 -0.89118,-1.03469 -1.7547,-2.31537 -0.8797,-1.29202 -1.62665,-2.63575 -0.7518,-1.37125 -1.26577,-2.59993 -0.53014,-1.24003 -0.71737,-2.14323 -0.18722,-0.9032 0.0736,-1.27529 0.22676,-0.32356 0.71224,-0.22456 0.48547,0.099 0.86891,0.3436 0.45298,0.31748 0.96404,0.96514 0.51106,0.64767 0.98963,1.51381 0.47856,0.86614 0.86158,1.83418 0.38303,0.96805 0.56859,1.94246 0.19691,0.95823 0.11713,1.79491 0.13095,0.26065 0.52392,0.80143 0.40431,0.52461 0.96557,1.13508 0.57259,0.59429 1.23588,1.05916 0.64712,0.45353 1.22483,0.59305 0.60522,0.13467 0.93403,-0.33449 0.29479,-0.42063 0.24667,-1.17809 -0.0481,-0.75746 -0.38275,-1.45034 -0.74307,0.37182 -1.54091,0.27102 -0.79783,-0.10079 -1.44495,-0.55432 -0.79272,-0.55558 -0.98327,-1.31635 -0.1792,-0.77696 0.25165,-1.39172 0.36283,-0.5177 1.00538,-0.57398 0.62638,-0.0676 1.45145,0.51064 0.46917,0.32881 0.91233,0.83239 0.43833,0.47607 0.78595,1.08157 0.0567,-0.0809 0.10689,-0.11809 0.0453,-0.0647 0.11338,-0.16178 0.39684,-0.56623 0.37291,-1.1861 -0.0239,-0.61988 -0.2518,-1.1897 -0.22787,-0.56982 -0.45423,-0.96971 l 0.50981,-0.005 q 0.67105,1.07341 0.75305,2.02348 0.0933,0.93389 -0.57562,1.88839 -0.0567,0.0809 -0.12472,0.17796 -0.0567,0.0809 -0.12956,0.15044 0.41053,0.96321 0.43584,1.99417 0.0528,1.02612 -0.58211,1.93209 z m -0.95259,-4.04503 q -0.22151,-0.37237 -0.49972,-0.66384 -0.28305,-0.319 -0.67132,-0.59112 -0.58241,-0.40817 -0.95948,-0.45532 -0.36573,-0.0633 -0.50179,0.13081 -0.14739,0.21031 0.0304,0.57618 0.18916,0.34969 0.5936,0.63315 0.33974,0.2381 0.89477,0.40997 0.55503,0.17187 1.11351,-0.0398 z m -5.21082,-0.9983 q -0.0886,-0.66523 -0.31319,-1.37747 -0.2294,-0.73976 -0.53651,-1.43748 -0.31194,-0.72524 -0.65957,-1.33074 -0.35246,-0.63301 -0.6597,-1.08958 -0.32342,-0.46792 -0.5596,-0.68168 -0.0324,-0.0227 -0.0485,-0.034 -0.0324,-0.0227 -0.0485,-0.034 -0.0535,0.17961 0.12901,0.81415 0.19386,0.61835 0.57854,1.51519 0.37984,0.86932 0.9328,1.83584 0.53678,0.95519 1.18528,1.8198 z m 1.86319,8.6709 q -0.28996,0.37514 -0.59835,0.38647 -0.32401,-7.6e-4 -0.52721,-0.15782 -0.17194,-0.1329 -0.23869,-0.43419 -0.0824,-0.31337 -0.0262,-0.64448 0.0405,-0.34319 0.19761,-0.54639 0.1329,-0.17194 0.37521,-0.2593 0.22668,-0.0994 0.50803,0.11802 0.12505,0.0967 0.28702,0.37166 0.14634,0.26293 0.18893,0.59548 0.039,0.30483 -0.16635,0.57055 z m -3.22175,5.20192 q -0.63745,0.75456 -1.34959,0.95465 -0.68429,0.19776 -1.31786,-0.001 -0.64866,-0.21178 -1.14667,-0.6325 -0.43764,-0.36973 -0.57711,-0.69444 -0.13946,-0.32472 -0.0921,-0.59506 0.0323,-0.28308 0.0994,-0.48499 0.0799,-0.217 0.0682,-0.3562 -0.0736,-0.70876 -0.25527,-1.5346 -0.18397,-0.85368 -0.57557,-1.67587 l -0.15091,-0.1275 q -0.60365,-0.50996 -0.67937,-0.91013 -0.0781,-0.42801 0.15142,-0.69965 0.15299,-0.1811 0.30728,-0.18006 0.16704,-0.014 0.30052,0.0728 0.0906,0.0765 0.17303,0.22376 0.0952,0.13218 0.30651,0.31066 0.45274,0.38248 1.21978,0.66841 0.7647,0.2581 1.59211,0.59503 0.84016,0.32185 1.51927,0.89556 0.18109,0.15298 0.31925,0.29557 0.13817,0.14258 0.24849,0.2875 0.27449,-0.56982 0.26459,-1.35403 -0.025,-0.79696 -0.46551,-1.86738 l 0.28881,-0.0663 q 0.61797,1.01343 0.6872,2.00293 0.0541,0.97676 -0.4371,1.80313 0.41476,0.76417 0.24487,1.57752 -0.15715,0.79827 -0.74361,1.49247 z m -0.75325,-0.45533 q 0.25498,-0.30182 0.3208,-0.68586 0.0658,-0.38404 -0.0934,-0.77719 -0.65853,0.504 -1.42635,0.70878 -0.76782,0.20478 -1.35949,0.17045 -0.13321,0.24952 0.22898,0.5555 0.49801,0.42072 1.17788,0.50371 0.67988,0.083 1.1516,-0.47539 z m -0.12336,-1.96625 q -0.0801,-0.11943 -0.21596,-0.23417 -0.13817,-0.14258 -0.21362,-0.20633 -0.69185,-0.55861 -1.49611,-0.95357 -0.80425,-0.39496 -1.63869,-0.81541 0.23835,0.66686 0.47565,1.48802 0.23731,0.82115 0.30158,1.41855 0.61145,0.10277 1.36886,-0.0591 0.75741,-0.16185 1.41829,-0.63801 z m -3.79292,7.37446 q -0.86475,0.9224 -1.84209,0.95393 -0.94942,0.0306 -1.69887,-0.67198 -0.63415,-0.59452 -1.0431,-1.57366 -0.40985,-1.00707 -0.51614,-2.13575 -0.12071,-1.14218 0.11169,-2.16997 0.2324,-1.02779 0.85394,-1.69076 0.3513,-0.37473 0.86385,-0.51705 0.51164,-0.17025 1.08814,0.37022 0.54767,0.51344 0.72602,1.2764 0.17836,0.76296 0.0532,1.64753 -0.12521,0.88456 -0.48822,1.76282 -0.36392,0.85033 -0.89988,1.56645 0.0441,0.0685 0.10269,0.15043 0.0577,0.054 0.20177,0.18916 0.0721,0.0676 0.27294,0.2288 0.19997,0.13332 0.49633,0.22159 0.29635,0.0883 0.65666,-0.007 0.36031,-0.0955 0.73864,-0.49903 0.56749,-0.60533 0.8035,-1.52142 0.2351,-0.94401 0.17294,-2.00423 -0.0486,-1.07463 -0.40264,-2.0835 l 0.50083,-0.0721 q 0.49993,1.19984 0.56749,2.4276 0.0811,1.21334 -0.26123,2.30058 -0.32878,1.07283 -1.05841,1.8511 z m -3.17614,-1.84029 q 0.30806,-0.41526 0.52425,-1.07913 0.21619,-0.66387 0.27654,-1.3926 0.0739,-0.74314 -0.0586,-1.38179 -0.14683,-0.65217 -0.55038,-1.03049 -0.15853,-0.14863 -0.27023,-0.14503 -0.1117,0.004 -0.2333,0.13332 -0.31077,0.33148 -0.40355,0.92149 -0.10719,0.5765 -0.0423,1.28721 0.0505,0.6972 0.25492,1.40341 0.20448,0.70621 0.50264,1.28361 z m -0.87527,5.52156 q -0.66464,0.64838 -1.36098,0.47211 -0.69599,-0.20421 -1.28918,-0.81229 -0.67597,-0.69292 -1.3319,-1.87456 -0.65594,-1.18164 -1.2391,-2.59988 -0.58281,-1.44617 -1.03973,-2.90475 -0.45657,-1.48652 -0.72001,-2.77506 -0.26345,-1.28854 -0.29445,-2.16906 -0.0307,-0.90845 0.23803,-1.17056 0.18384,-0.17934 0.50424,-0.10552 0.30661,0.0597 0.63943,0.25939 0.33316,0.17177 0.55388,0.39803 0.37247,0.38182 0.78148,1.19717 0.40936,0.78741 0.77317,1.86764 0.37796,1.06644 0.65589,2.31324 0.27828,1.21888 0.37445,2.4774 0.11031,1.24473 -0.0436,2.3884 0.28832,0.40871 0.57663,0.81743 0.28866,0.38077 0.56457,0.6636 0.49662,0.50909 0.90084,0.58395 0.39041,0.0607 0.6591,-0.20139 0.35353,-0.34488 0.40392,-1.02881 0.0507,-0.71186 -0.10651,-1.55203 -0.15689,-0.86811 -0.44035,-1.66793 l 0.51873,-0.14725 q 0.61969,1.85177 0.58755,3.31826 -0.0459,1.45235 -0.86613,2.25247 z m -3.3991,-4.16338 q -0.0296,-0.99226 -0.19857,-2.01419 -0.16861,-1.04987 -0.43586,-2.03111 -0.25311,-0.99503 -0.56382,-1.85108 -0.31072,-0.85604 -0.62454,-1.46066 -0.31348,-0.63255 -0.57525,-0.92917 -0.0138,-0.0141 -0.0138,-0.0141 -0.0138,-0.0141 -0.0276,-0.0283 -0.11313,0.11036 -0.0504,0.68392 0.0631,0.54563 0.26171,1.42822 0.19862,0.8826 0.52071,1.94834 0.33623,1.05195 0.76936,2.17494 0.43349,1.09507 0.93803,2.09321 z m -4.08723,10.89635 q -0.28328,0.24627 -0.71107,0.35642 -0.39993,0.11209 -0.85298,-0.0176 -0.46796,-0.11672 -0.86977,-0.57889 -0.42774,-0.492 -0.72062,-1.31066 -0.29289,-0.81865 -0.42177,-1.77989 -0.11398,-0.9742 -0.0179,-1.94772 0.11093,-0.98649 0.45001,-1.83101 0.33907,-0.84452 0.96525,-1.38891 0.34291,-0.29812 0.64042,-0.34735 0.28455,-0.0641 0.50489,0.18932 0.0648,0.0745 0.12573,0.20483 0.048,0.11538 -0.007,0.29361 -0.13741,-0.0376 -0.31242,0.0622 -0.18798,0.0849 -0.35198,0.22746 -0.492,0.42774 -0.69299,1.09986 -0.21396,0.65721 -0.2108,1.41362 0.003,0.7564 0.16059,1.50958 0.17234,0.74022 0.43802,1.34692 0.25272,0.5918 0.55084,0.9347 0.24627,0.28328 0.52108,0.35849 0.26185,0.0603 0.5004,-0.14708 0.40254,-0.34997 0.55236,-1.29173 0.15177,-0.96963 -0.0315,-2.35477 -0.18134,-1.41301 -0.78007,-3.06523 -0.41082,-1.13497 -0.81774,-2.32568 -0.41988,-1.20562 -0.77496,-2.3367 -0.35508,-1.13107 -0.56952,-2.07028 -0.19954,-0.95217 -0.21049,-1.59709 -0.009,-0.67279 0.25935,-0.9061 0.164,-0.14258 0.39993,-0.11209 0.23787,0.003 0.40638,0.19644 0.22035,0.25345 0.45944,1.04034 0.24103,0.75902 0.52741,1.87129 0.30128,1.09931 0.64467,2.39761 0.34534,1.27043 0.78726,2.56161 0.44386,1.26331 0.99403,2.40802 0.55212,1.11683 1.25205,1.92192 0.31108,0.35782 0.48737,0.44015 0.17824,0.0545 0.34224,-0.0881 0.328,-0.28516 0.51019,-0.88858 0.18219,-0.60342 0.17191,-1.45834 -0.0232,-0.86984 -0.28954,-1.86868 l 0.49066,-0.008 q 0.3849,1.10516 0.42238,2.17203 0.0375,1.06688 -0.24585,1.91529 -0.27037,0.86332 -0.83691,1.35587 -0.61127,0.53143 -1.18682,0.35118 -0.57555,-0.18025 -1.0292,-0.70206 -0.20739,-0.23855 -0.38496,-0.50302 -0.17562,-0.29233 -0.33828,-0.56976 0.1211,1.07271 0.0659,2.0631 -0.0532,0.96251 -0.28601,1.68843 -0.23276,0.72591 -0.68003,1.11476 z m -5.88769,4.56654 q -0.70947,0.5357 -1.33463,0.2651 -0.59749,-0.26675 -1.01414,-0.81856 -0.38094,-0.50451 -0.61613,-1.14383 -0.24709,-0.65509 -0.3243,-1.31468 -0.0614,-0.6715 0.0673,-1.18952 0.13258,-0.54568 0.47943,-0.80758 0.11036,-0.0833 0.28797,-0.14317 0.18147,-0.0875 0.30406,-0.0563 -0.0106,0.37934 0.0463,0.88095 0.0727,0.48971 0.19689,1.01481 0.12805,0.49743 0.33106,0.963 0.20302,0.46558 0.45301,0.79667 0.23809,0.31532 0.50321,0.43695 0.28088,0.10972 0.58044,-0.11646 0.29955,-0.22619 0.45948,-0.86679 0.16378,-0.66827 0.20884,-1.39543 -0.84974,-0.0763 -1.47522,-0.44566 -0.63738,-0.38515 -1.22069,-1.15768 -0.25,-0.33109 -0.41376,-0.87582 -0.14799,-0.55663 -0.0235,-1.14575 0.1403,-0.60103 0.77094,-1.07721 0.67794,-0.51189 1.23167,-0.33588 0.56949,0.16411 0.96234,0.68439 0.44046,0.58334 0.67275,1.54667 0.24805,0.95142 0.31045,1.91925 0.26061,-0.0483 0.51287,-0.23873 0.23649,-0.17857 0.48425,-0.53892 0.24775,-0.36036 0.3726,-0.85071 0.11295,-0.50611 -0.0312,-1.09041 l 0.43854,-0.009 q 0.26028,1.06597 -0.0374,1.88481 -0.29378,0.79118 -0.84559,1.20784 -0.20496,0.15476 -0.43372,0.27798 -0.24067,0.10746 -0.46172,0.17535 -0.0599,1.03539 -0.39644,2.03217 -0.33657,0.99677 -1.04604,1.53247 z m 0.65775,-4.30887 q -0.0383,-0.83752 -0.24643,-1.67053 -0.20815,-0.83302 -0.61291,-1.36907 -0.2738,-0.36262 -0.5032,-0.43694 -0.24132,-0.0901 -0.46204,0.0766 -0.29955,0.22619 -0.29346,0.88996 0.006,0.66377 0.49419,1.31018 0.24999,0.33109 0.71749,0.72074 0.48326,0.37774 0.90636,0.4791 z m -6.76837,8.46099 q -0.74082,0.49143 -1.34831,0.1832 -0.58011,-0.30269 -0.96233,-0.87888 -0.34946,-0.52681 -0.54522,-1.17929 -0.20668,-0.66894 -0.24351,-1.33201 -0.0204,-0.67399 0.13969,-1.18319 0.16561,-0.53659 0.52779,-0.77684 0.11524,-0.0764 0.29617,-0.12535 0.18647,-0.0763 0.30692,-0.0376 -0.0337,0.37799 -0.007,0.88214 0.0427,0.49323 0.13463,1.02493 0.0975,0.50431 0.27171,0.9814 0.17424,0.4771 0.40358,0.82281 0.21841,0.32926 0.47562,0.46683 0.27367,0.12665 0.58646,-0.0808 0.31279,-0.2075 0.51149,-0.83715 0.20424,-0.65704 0.29357,-1.3801 -0.84351,-0.12795 -1.4453,-0.5348 -0.6127,-0.4233 -1.14781,-1.22998 -0.22934,-0.34572 -0.35957,-0.89942 -0.11377,-0.56462 0.0465,-1.14505 0.17669,-0.59135 0.8352,-1.02818 0.7079,-0.46959 1.24986,-0.26014 0.55843,0.19854 0.91881,0.74181 0.40407,0.60912 0.57717,1.58482 0.18956,0.96478 0.19281,1.93461 0.26308,-0.0323 0.52648,-0.207 0.24694,-0.16381 0.51622,-0.50839 0.26927,-0.34457 0.42379,-0.82639 0.14361,-0.49828 0.0354,-1.09029 l 0.4383,0.0174 q 0.19477,1.07985 -0.15225,1.87902 -0.34148,0.77179 -0.91768,1.15402 -0.21402,0.14197 -0.44987,0.25101 -0.24678,0.0926 -0.47155,0.14686 -0.12291,1.02981 -0.51965,2.00421 -0.39674,0.97439 -1.13756,1.46582 z m 0.91932,-4.26073 q 0.0129,-0.8383 -0.14408,-1.68246 -0.15696,-0.84416 -0.52826,-1.40389 -0.25118,-0.37865 -0.47562,-0.46683 -0.23537,-0.10464 -0.46585,0.0482 -0.31279,0.20749 -0.34719,0.8704 -0.0344,0.66291 0.41336,1.33788 0.22933,0.34572 0.67219,0.76315 0.45932,0.40652 0.87545,0.5335 z m -9.30817,9.10309 q -0.32705,0.18422 -0.76826,0.20601 -0.4143,0.0293 -0.83198,-0.18891 -0.43489,-0.20851 -0.73546,-0.7421 -0.31996,-0.56802 -0.44208,-1.42887 -0.12213,-0.86086 -0.0549,-1.82836 0.0844,-0.9772 0.37443,-1.91148 0.30721,-0.94397 0.80932,-1.70296 0.50211,-0.759 1.22504,-1.16622 0.39589,-0.223 0.69723,-0.21134 0.29163,-0.006 0.45646,0.28706 0.0485,0.0861 0.0819,0.22594 0.0237,0.12267 -0.0655,0.2863 -0.12703,-0.0645 -0.31854,-0.002 -0.20122,0.0453 -0.39056,0.15198 -0.56802,0.31996 -0.90018,0.93787 -0.34185,0.6007 -0.49099,1.34226 -0.14914,0.74156 -0.14653,1.51101 0.0198,0.75976 0.15797,1.40752 0.12844,0.63055 0.35144,1.02644 0.18422,0.32704 0.43827,0.45603 0.24435,0.11177 0.51976,-0.0434 0.46474,-0.26178 0.80104,-1.15412 0.34382,-0.91924 0.44306,-2.31293 0.10676,-1.42059 -0.14718,-3.1595 -0.17398,-1.19443 -0.33292,-2.44268 -0.16864,-1.26545 -0.28881,-2.44485 -0.12016,-1.1794 -0.14118,-2.14254 -0.004,-0.97285 0.11525,-1.60677 0.12659,-0.66084 0.43642,-0.83536 0.18934,-0.10666 0.4143,-0.0293 0.23248,0.0504 0.35853,0.27421 0.16483,0.29261 0.24065,1.11152 0.0833,0.792 0.13999,1.93915 0.0739,1.13745 0.14892,2.4783 0.0826,1.31394 0.25558,2.66764 0.18052,1.32679 0.48904,2.5588 0.31603,1.20511 0.83961,2.13459 0.23269,0.41311 0.38881,0.52924 0.16363,0.0892 0.35296,-0.0174 0.37868,-0.21331 0.6786,-0.76771 0.29991,-0.5544 0.46191,-1.3939 0.1523,-0.85671 0.0925,-1.88871 l 0.48217,0.0912 q 0.15459,1.16001 -0.0234,2.21259 -0.17801,1.05259 -0.6263,1.82662 -0.4386,0.79124 -1.09268,1.15968 -0.70572,0.39752 -1.23321,0.10512 -0.52749,-0.29239 -0.86685,-0.89484 -0.15513,-0.2754 -0.27583,-0.57019 -0.11319,-0.32171 -0.21669,-0.6262 -0.0973,1.07514 -0.35068,2.03415 -0.24588,0.9321 -0.61998,1.59631 -0.3741,0.66421 -0.89048,0.95509 z" />
    </g>
    <path
       style="fill:none;fill-opacity:1;fill-rule:evenodd;stroke:none;stroke-width:0.529167;stroke-linecap:round;stroke-linejoin:round;paint-order:markers stroke fill;stop-color:#000000"
       d="M 132.29167,254 C 195.79167,254 253.2045,195.5319 254,111.125"
       id="path3629"
       sodipodi:nodetypes="cc" />
  </g>
</svg>
