<?xml version="1.0" encoding="UTF-8" standalone="no"?>
<!-- Created with Inkscape (http://www.inkscape.org/) -->

<svg
   width="387.58969mm"
   height="387.38898mm"
   viewBox="0 0 387.58969 387.38898"
   version="1.1"
   id="svg298809"
   xml:space="preserve"
   inkscape:version="1.2.2 (732a01da63, 2022-12-09)"
   sodipodi:docname="pinIcon.svg"
   xmlns:inkscape="http://www.inkscape.org/namespaces/inkscape"
   xmlns:sodipodi="http://sodipodi.sourceforge.net/DTD/sodipodi-0.dtd"
   xmlns="http://www.w3.org/2000/svg"
   xmlns:svg="http://www.w3.org/2000/svg"><sodipodi:namedview
     id="namedview298811"
     pagecolor="#c6c6c6"
     bordercolor="#000000"
     borderopacity="0.25"
     inkscape:showpageshadow="2"
     inkscape:pageopacity="0"
     inkscape:pagecheckerboard="0"
     inkscape:deskcolor="#d1d1d1"
     inkscape:document-units="mm"
     showgrid="false"
     inkscape:zoom="0.2102413"
     inkscape:cx="299.65568"
     inkscape:cy="939.39677"
     inkscape:window-width="1440"
     inkscape:window-height="890"
     inkscape:window-x="-6"
     inkscape:window-y="-6"
     inkscape:window-maximized="1"
     inkscape:current-layer="layer1" /><defs
     id="defs298806" /><g
     inkscape:label="Layer 1"
     inkscape:groupmode="layer"
     id="layer1"
     transform="translate(131.5254,99.941544)"><path
       style="fill:#ffffff;stroke-width:1"
       d="m 54.192468,287.21957 c -0.21828,-0.12348 -1.88515,-0.29212 -3.70416,-0.3748 -7.54007,-0.34267 -21.15802,-2.1499 -28.31042,-3.75711 -14.0825702,-3.16445 -24.7042802,-6.55339 -36.58926,-11.67405 -38.57851,-16.62168 -71.1646,-45.91698 -91.926438,-82.64303 -2.03455,-3.59897 -2.87275,-5.19729 -5.08694,-9.70013 -1.29962,-2.64292 -3.09208,-6.51245 -3.98324,-8.59895 -0.89117,-2.08648 -1.77651,-4.15081 -1.96743,-4.58738 -0.67721,-1.54858 -4.05188,-11.01709 -5.13934,-14.41979 -0.75368,-2.35828 -2.79732,-9.96127 -3.6079,-13.42255 -0.367,-1.56712 -0.78542,-3.32557 -0.92982,-3.90765 -0.40116,-1.61703 -2.03216,-11.1541 -2.23979,-13.09688 -0.10109,-0.94588 -0.28298,-2.19604 -0.4042,-2.77812 -0.21047,-1.01063 -0.94615,-9.4597 -1.6129,-18.523673 -1.11116,-15.10535 2.15647,-40.69358 7.67596,-60.1092 15.26466,-53.69562 57.622158,-102.29389 107.182138,-122.97387 0.94588,-0.39469 2.07698,-0.87674 2.51354,-1.07121 7.7157198,-3.43705 21.1809098,-8.00484 28.14025,-9.546 0.92505,-0.20486 1.77553,-0.43032 1.88996,-0.50104 1.8102,-1.11877 22.08542,-4.29988 32.14125,-5.04285 10.64745,-0.786677 33.46961,-0.43753 35.04917,0.53621 0.0803,0.0495 1.33665,0.22901 2.79186,0.39888 5.30643,0.61944 15.140972,2.30636 19.446872,3.33573 5.65494,1.35188 13.16043,3.42332 16.27188,4.49089 9.44017,3.23902 11.79052,4.12961 17.9969,6.81937 34.80255,15.08296 66.37576,42.11522 85.96273,73.59926 0.99584,1.6007301 2.19281,3.5057301 2.65996,4.2333401 13.95849,21.7416299 24.68925,55.1980799 26.85878,83.7406199 0.14933,1.96453 0.40312,4.88156 0.56398,6.48229 0.56833,5.65528 0.0257,21.430113 -1.06952,31.088543 -0.62836,5.54167 -2.33487,16.06981 -3.19503,19.71146 -0.1375,0.58208 -0.5588,2.36802 -0.93623,3.96875 -2.2887,9.70671 -6.41318,22.21526 -10.03281,30.42708 -0.19243,0.43656 -0.73171,1.68672 -1.19838,2.77812 -18.26522,42.71666 -56.2161,80.41423 -99.75101,99.08516 -1.23692,0.53049 -2.48708,1.0723 -2.77812,1.20407 -5.2482,2.37579 -18.99952,7.02579 -24.87083,8.41004 -0.58209,0.13724 -2.18943,0.54631 -3.57188,0.90906 -9.195942,2.41294 -24.597382,4.72014 -34.263542,5.13281 -1.89177,0.0807 -3.55269,0.25267 -3.69093,0.382 -0.32062,0.29999 -15.75429,0.29485 -16.28511,-0.005 z M 9.9139678,243.7284 c 1.5135002,-0.85574 10.9930402,-14.2707 16.0256302,-22.67865 8.10708,-13.54455 12.19652,-23.22245 15.81975,-37.43854 0.70469,-2.7649 1.6988,-6.63443 2.20914,-8.59896 0.51034,-1.96453 2.37502,-9.28688 4.14373,-16.27188 3.15243,-12.44951 3.39165,-13.28591 3.61883,-12.65232 5.12112,14.2829 34.15945,22.81563 58.329962,17.13992 52.74096,-12.38456 85.69036,-89.307773 61.93152,-144.584463 -32.24987,-75.03176 -151.612302,-79.5079 -197.553562,-7.40833 -25.52116,40.05254 -18.02645,95.157813 15.19517,111.723323 8.1331198,4.05545 10.1711298,2.8467 12.8487998,-7.62061 3.35281,-13.10661 3.34298,-12.82729 0.57695,-16.382553 -8.83412,-11.35481 -11.43457,-18.99162 -11.4006,-33.48059 0.10928,-46.61774 38.1875402,-80.58792 86.3456802,-77.03028 37.727362,2.7870801 60.132832,25.29641 60.783392,61.06514 0.62412,34.31468 -11.02821,65.975123 -29.31541,79.652733 -17.656412,13.2058 -40.774272,8.54461 -46.858842,-9.448 -2.46565,-7.2911 -1.66497,-12.05559 6.38058,-37.967713 0.2711,-0.87313 0.80944,-2.65906 1.19634,-3.96875 0.38688,-1.30969 0.80971,-2.67891 0.93962,-3.04271 1.62316,-4.54568 4.37467,-16.30911 5.02666,-21.4904 4.55472,-36.19561 -38.22417,-41.62651 -50.47375,-6.40779 -4.49141,12.9132 -3.97133,29.86988 1.30811,42.65006 l 0.79298,1.91958 -1.10279,4.56271 c -0.60654,2.5095 -1.26708,5.277093 -1.46789,6.150213 -0.2008,0.87313 -1.21104,5.15938 -2.24496,9.525 -1.03393,4.36563 -2.04527,8.65188 -2.24743,9.525 -0.61941,2.67518 -1.37703,5.88606 -2.46598,10.45104 -0.57277,2.4011 -1.36076,5.73485 -1.75108,7.40834 -1.43873,6.16852 -2.87303,12.23131 -3.59912,15.21354 -0.28344,1.16417 -1.18301,4.97416 -1.99904,8.46666 -0.81603,3.4925 -1.7115502,7.3025 -1.9900402,8.46667 -3.57775,14.95602 -4.49312,20.61702 -4.85579,30.03021 -0.0813,2.11005 -0.20688,4.66989 -0.27906,5.68854 -0.39638,5.59342 1.04553,26.07426 2.3841,33.86367 0.50301,2.92717 1.88612,4.0231 3.7484,2.97019 z"
       id="path299075" /></g></svg>
